#define exit_width 16
#define exit_height 16
static unsigned char exit_bits[] = {
   0x00, 0x00, 0x00, 0x00, 0x38, 0x38, 0x70, 0x3c, 0xc0, 0x1e, 0x80, 0x07,
   0xc0, 0x03, 0xe0, 0x06, 0x70, 0x0c, 0x78, 0x1c, 0x3c, 0x1c, 0x3c, 0x18,
   0x1c, 0x00, 0x1c, 0x00, 0x00, 0x00, 0x00, 0x00};
