#define last_width 16
#define last_height 16
static unsigned char last_bits[] = {
   0x00, 0x00, 0x00, 0x00, 0x02, 0x02, 0x06, 0x06, 0x0e, 0x0e, 0x1e, 0x1e,
   0x3e, 0x3e, 0x7e, 0x7e, 0x7e, 0x7e, 0x3e, 0x3e, 0x1e, 0x1e, 0x0e, 0x0e,
   0x06, 0x06, 0x02, 0x02, 0x00, 0x00, 0x00, 0x00};
