<?xml version="1.0" encoding="UTF-8" standalone="no"?>
<!-- Created with Inkscape (http://www.inkscape.org/) -->

<svg
   xmlns:dc="http://purl.org/dc/elements/1.1/"
   xmlns:cc="http://creativecommons.org/ns#"
   xmlns:rdf="http://www.w3.org/1999/02/22-rdf-syntax-ns#"
   xmlns:svg="http://www.w3.org/2000/svg"
   xmlns="http://www.w3.org/2000/svg"
   xmlns:xlink="http://www.w3.org/1999/xlink"
   xmlns:sodipodi="http://sodipodi.sourceforge.net/DTD/sodipodi-0.dtd"
   xmlns:inkscape="http://www.inkscape.org/namespaces/inkscape"
   width="96"
   height="96"
   id="svg2408"
   sodipodi:version="0.32"
   inkscape:version="0.48.1 r9760"
   version="1.0"
   sodipodi:docname="application-default-icon.svg"
   inkscape:output_extension="org.inkscape.output.svg.inkscape">
  <defs
     id="defs2410">
    <linearGradient
       inkscape:collect="always"
       id="linearGradient3701">
      <stop
         style="stop-color:#ffffff;stop-opacity:1;"
         offset="0"
         id="stop3703" />
      <stop
         style="stop-color:#ffffff;stop-opacity:0;"
         offset="1"
         id="stop3705" />
    </linearGradient>
    <linearGradient
       id="linearGradient3686">
      <stop
         style="stop-color:#dcdcdc;stop-opacity:1;"
         offset="0"
         id="stop3688" />
      <stop
         style="stop-color:#f0f0f0;stop-opacity:1;"
         offset="1"
         id="stop3690" />
    </linearGradient>
    <linearGradient
       gradientTransform="matrix(1.0172414,0,0,1.0172414,-1.1034483,-1.1034483)"
       id="linearGradient3848"
       x1="58.650177"
       y1="122"
       x2="58.650177"
       y2="5.4252338"
       gradientUnits="userSpaceOnUse">
      <stop
         style="stop-color:#969696;stop-opacity:1;"
         offset="0"
         id="stop3850" />
      <stop
         style="stop-color:#d2d2d2;stop-opacity:1;"
         offset="1"
         id="stop3852" />
    </linearGradient>
    <linearGradient
       id="ButtonShadow"
       gradientTransform="scale(1.0058652,0.994169)"
       x1="45.447727"
       y1="92.539597"
       x2="45.447727"
       y2="7.0165396"
       gradientUnits="userSpaceOnUse">
      <stop
         style="stop-color:#000000;stop-opacity:1;"
         offset="0"
         id="stop3750" />
      <stop
         style="stop-color:#000000;stop-opacity:0.58823532;"
         offset="1"
         id="stop3752" />
    </linearGradient>
    <linearGradient
       inkscape:collect="always"
       id="linearGradient3737">
      <stop
         style="stop-color:#ffffff;stop-opacity:1;"
         offset="0"
         id="stop3739" />
      <stop
         style="stop-color:#ffffff;stop-opacity:0;"
         offset="1"
         id="stop3741" />
    </linearGradient>
    <linearGradient
       id="linearGradient3700">
      <stop
         style="stop-color:#2276c5;stop-opacity:1;"
         offset="0"
         id="stop3702" />
      <stop
         style="stop-color:#68baf4;stop-opacity:1;"
         offset="1"
         id="stop3704" />
    </linearGradient>
    <inkscape:perspective
       sodipodi:type="inkscape:persp3d"
       inkscape:vp_x="0 : 526.18109 : 1"
       inkscape:vp_y="0 : 1000 : 0"
       inkscape:vp_z="744.09448 : 526.18109 : 1"
       inkscape:persp3d-origin="372.04724 : 350.78739 : 1"
       id="perspective2416" />
    <linearGradient
       inkscape:collect="always"
       xlink:href="#linearGradient3700"
       id="linearGradient3706"
       x1="48"
       y1="90"
       x2="48"
       y2="5.9877172"
       gradientUnits="userSpaceOnUse" />
    <linearGradient
       inkscape:collect="always"
       xlink:href="#linearGradient3737"
       id="linearGradient3743"
       x1="36.357143"
       y1="6"
       x2="36.357143"
       y2="63.893143"
       gradientUnits="userSpaceOnUse" />
    <filter
       inkscape:collect="always"
       id="filter3174">
      <feGaussianBlur
         inkscape:collect="always"
         stdDeviation="1.71"
         id="feGaussianBlur3176" />
    </filter>
    <linearGradient
       inkscape:collect="always"
       xlink:href="#linearGradient3737"
       id="linearGradient3188"
       gradientUnits="userSpaceOnUse"
       x1="36.357143"
       y1="6"
       x2="36.357143"
       y2="63.893143" />
    <filter
       inkscape:collect="always"
       id="filter3794"
       x="-0.192"
       width="1.384"
       y="-0.192"
       height="1.384">
      <feGaussianBlur
         inkscape:collect="always"
         stdDeviation="5.28"
         id="feGaussianBlur3796" />
    </filter>
    <linearGradient
       inkscape:collect="always"
       xlink:href="#linearGradient3737"
       id="linearGradient3613"
       x1="48"
       y1="20.220806"
       x2="48"
       y2="138.66119"
       gradientUnits="userSpaceOnUse" />
    <radialGradient
       inkscape:collect="always"
       xlink:href="#linearGradient3737"
       id="radialGradient3619"
       cx="48"
       cy="90.171875"
       fx="48"
       fy="90.171875"
       r="42"
       gradientTransform="matrix(1.1573129,0,0,0.99590774,-7.5510206,0.19713193)"
       gradientUnits="userSpaceOnUse" />
    <clipPath
       clipPathUnits="userSpaceOnUse"
       id="clipPath3613">
      <rect
         ry="6"
         rx="6"
         y="6"
         x="6"
         height="84"
         width="84"
         id="rect3615"
         style="fill:#ffffff;fill-opacity:1;fill-rule:nonzero;stroke:none" />
    </clipPath>
    <linearGradient
       inkscape:collect="always"
       xlink:href="#ButtonColor-7"
       id="linearGradient3617"
       gradientUnits="userSpaceOnUse"
       x1="48"
       y1="90"
       x2="48"
       y2="5.9877172" />
    <inkscape:perspective
       id="perspective3667"
       inkscape:persp3d-origin="0.5 : 0.33333333 : 1"
       inkscape:vp_z="1 : 0.5 : 1"
       inkscape:vp_y="0 : 1000 : 0"
       inkscape:vp_x="0 : 0.5 : 1"
       sodipodi:type="inkscape:persp3d" />
    <linearGradient
       gradientUnits="userSpaceOnUse"
       y2="5.4252338"
       x2="58.650177"
       y1="122"
       x1="58.650177"
       id="ButtonColor"
       gradientTransform="matrix(1.0172414,0,0,1.0172414,-1.1034483,-1.1034483)">
      <stop
         id="stop3401"
         offset="0"
         style="stop-color:#d85400;stop-opacity:1;" />
      <stop
         id="stop3403"
         offset="1"
         style="stop-color:#ffa119;stop-opacity:1;" />
    </linearGradient>
    <inkscape:perspective
       id="perspective3703"
       inkscape:persp3d-origin="0.5 : 0.33333333 : 1"
       inkscape:vp_z="1 : 0.5 : 1"
       inkscape:vp_y="0 : 1000 : 0"
       inkscape:vp_x="0 : 0.5 : 1"
       sodipodi:type="inkscape:persp3d" />
    <clipPath
       clipPathUnits="userSpaceOnUse"
       id="clipPath3836">
      <path
         style="fill:#ffffff;fill-opacity:1;fill-rule:nonzero;stroke:none"
         d="m 112,6 c -3.324,0 -6,2.676 -6,6 l 0,23.71875 c 4.16476,5.590927 10.83896,9.218751 18.34375,9.21875 12.61273,0 22.84375,-10.231021 22.84375,-22.84375 0,-6.274884 -2.52698,-11.964405 -6.625,-16.09375 l -7.34375,0 c 5.78119,3.1123067 9.71875,9.225149 9.71875,16.25 0,10.181526 -8.25597,18.4375 -18.4375,18.4375 -10.18153,0 -18.4375,-8.255974 -18.4375,-18.4375 0,-7.024851 3.93756,-13.1376933 9.71875,-16.25 L 112,6 z m 34.375,0 0.46875,0.59375 0.5625,-0.40625 0.5,-0.1875 -1.53125,0 z m 5.96875,0 0.40625,0.75 -1.65625,2.15625 -1.4375,1.1875 -0.625,0.28125 1.0625,2.5625 0.65625,-0.25 1.84375,-0.15625 2.71875,0.34375 0.4375,1.71875 -2.15625,1.6875 -1.6875,0.75 -0.6875,0.125 0.375,2.75 0.6875,-0.0625 1.8125,0.3125 2.53125,1.0625 0,1.78125 -2.53125,1.03125 -1.8125,0.3125 -0.6875,-0.0625 -0.375,2.75 0.6875,0.125 1.6875,0.75 2.15625,1.6875 -0.4375,1.71875 -2.71875,0.375 L 150.75,31.5 l -0.65625,-0.21875 -1.0625,2.5625 0.625,0.25 1.4375,1.1875 1.65625,2.1875 L 151.875,39 149.15625,38.65625 147.40625,38 l -0.5625,-0.375 -1.6875,2.1875 0.53125,0.4375 1.0625,1.5 1.0625,2.53125 -1.25,1.28125 L 144,44.5 l -1.5,-1.0625 -0.4375,-0.53125 -2.1875,1.6875 0.375,0.5625 0.65625,1.75 0.34375,2.71875 -1.53125,0.875 -2.1875,-1.65625 -1.15625,-1.4375 -0.3125,-0.625 -2.53125,1.0625 0.21875,0.65625 0.1875,1.84375 -0.375,2.71875 -1.71875,0.46875 -1.65625,-2.1875 -0.78125,-1.6875 -0.125,-0.6875 -2.71875,0.375 0.0625,0.65625 -0.3125,1.84375 -1.0625,2.53125 -1.78125,0 -1.0625,-2.53125 L 122.125,50 l 0.0625,-0.65625 -2.75,-0.375 -0.125,0.6875 -0.75,1.6875 -1.6875,2.1875 -1.71875,-0.46875 -0.375,-2.71875 0.15625,-1.84375 0.25,-0.65625 -2.53125,-1.0625 -0.3125,0.625 -1.1875,1.4375 L 109,50.5 l -1.5625,-0.875 0.375,-2.71875 0.625,-1.75 0.40625,-0.5625 -2.1875,-1.6875 -0.4375,0.53125 L 106,43.59375 106,84 c 0,3.324 2.676,6 6,6 l 25.875,0 -0.25,-0.40625 1.84375,-2.4375 1.59375,-1.28125 0.65625,-0.34375 -1.15625,-2.8125 -0.71875,0.25 -2.03125,0.21875 -3,-0.40625 -0.53125,-1.90625 2.40625,-1.875 1.875,-0.8125 0.75,-0.15625 L 138.90625,75 l -0.75,0.0625 -2.03125,-0.34375 -2.8125,-1.15625 0,-1.96875 2.8125,-1.1875 2.03125,-0.3125 0.75,0.0625 0.40625,-3.03125 -0.75,-0.15625 -1.875,-0.84375 -2.40625,-1.84375 0.53125,-1.90625 3,-0.40625 2.03125,0.1875 0.71875,0.25 1.15625,-2.8125 -0.65625,-0.3125 -1.59375,-1.3125 -1.84375,-2.40625 1,-1.71875 3,0.40625 1.90625,0.71875 0.625,0.4375 1.875,-2.4375 -0.59375,-0.5 L 144.25,50.8125 143.09375,48 144.5,46.625 l 2.8125,1.125 1.65625,1.21875 0.5,0.5625 2.40625,-1.84375 -0.4375,-0.65625 -0.6875,-1.875 -0.40625,-3.03125 1.6875,-1 2.4375,1.84375 1.3125,1.59375 0.3125,0.6875 2.8125,-1.1875 -0.25,-0.6875 -0.1875,-2.0625 0.40625,-3 1.875,-0.5 1.875,2.40625 0.84375,1.875 0.125,0.71875 3.03125,-0.375 -0.0625,-0.78125 0.34375,-2 1.1875,-2.8125 1.96875,0 1.15625,2.8125 0.34375,2 -0.0625,0.78125 3.03125,0.375 0.125,-0.71875 0.84375,-1.875 1.875,-2.40625 1.875,0.5 0.4375,3 -0.21875,2.0625 -0.25,0.6875 2.8125,1.1875 0.34375,-0.6875 1.28125,-1.59375 2.40625,-1.84375 1.71875,1 -0.375,3.03125 -0.75,1.875 -0.40625,0.65625 2.40625,1.84375 0.5,-0.5625 L 190,48.34375 190,12 c 0,-3.324 -2.676,-6 -6,-6 L 152.34375,6 z M 124.5,8.625 c -7.53154,0 -13.65625,6.09346 -13.65625,13.625 0,7.53154 6.12471,13.65625 13.65625,13.65625 7.53154,0 13.625,-6.12471 13.625,-13.65625 0,-7.53154 -6.09346,-13.625 -13.625,-13.625 z m 44.5625,38.53125 c -5.74578,0 -11.05193,1.907852 -15.3125,5.125 l 8.15625,8.78125 c 2.0761,-1.293182 4.53192,-2.03125 7.15625,-2.03125 1.32352,0 2.60305,0.17696 3.8125,0.53125 l 5.5,-10.625 c -2.88236,-1.135296 -6.0278,-1.78125 -9.3125,-1.78125 z m 13.90625,4.15625 -5.5,10.65625 c 3.0873,2.451345 5.10585,6.203919 5.15625,10.4375 L 190,73.75 190,58.1875 c -1.87421,-2.717952 -4.26324,-5.061314 -7.03125,-6.875 z m -62.65625,2.15625 1.21875,0 0.9375,2.09375 0.0625,0.71875 -0.1875,1.28125 2.21875,0.59375 0.46875,-1.1875 0.4375,-0.59375 1.875,-1.3125 1.0625,0.625 -0.25,2.25 -0.28125,0.6875 -0.8125,0.96875 1.625,1.65625 1,-0.78125 0.6875,-0.3125 2.25,-0.21875 0.625,1.0625 -1.34375,1.84375 -0.59375,0.4375 -1.1875,0.46875 0.59375,2.21875 1.25,-0.1875 0.75,0.09375 2.0625,0.9375 0,1.25 -2.09375,0.9375 -0.71875,0.0625 -1.25,-0.1875 -0.625,2.21875 1.1875,0.46875 0.59375,0.4375 1.34375,1.84375 -0.625,1.0625 -2.28125,-0.21875 -0.65625,-0.3125 -1,-0.78125 -1.625,1.625 0.78125,1 0.28125,0.65625 0.21875,2.28125 -1.0625,0.59375 -1.84375,-1.3125 -0.4375,-0.625 -0.46875,-1.15625 -2.21875,0.5625 0.1875,1.28125 -0.0625,0.71875 -0.96875,2.09375 -1.21875,0 -0.9375,-2.09375 -0.0625,-0.75 0.1875,-1.25 -2.21875,-0.59375 -0.5,1.1875 -0.40625,0.59375 -1.875,1.3125 -1.0625,-0.625 0.21875,-2.25 0.3125,-0.6875 0.8125,-1 -1.625,-1.625 -1,0.78125 -0.6875,0.3125 -2.28125,0.21875 -0.59375,-1.0625 1.34375,-1.875 0.59375,-0.40625 1.1875,-0.46875 -0.59375,-2.21875 -1.25,0.15625 -0.75,-0.0625 -2.0625,-0.9375 0,-1.25 2.0625,-0.9375 0.75,-0.0625 1.25,0.1875 0.59375,-2.21875 -1.15625,-0.46875 -0.59375,-0.4375 -1.34375,-1.84375 0.625,-1.0625 2.28125,0.21875 0.65625,0.3125 1,0.78125 1.625,-1.625 -0.78125,-1 L 113.625,57.90625 113.40625,55.625 114.5,55 l 1.84375,1.34375 0.4375,0.59375 0.4375,1.1875 2.25,-0.59375 -0.1875,-1.25 0.0625,-0.71875 0.96875,-2.09375 z m 29.625,2.34375 c -3.93256,4.474843 -6.3125,10.329221 -6.3125,16.75 0,2.868692 0.49734,5.613964 1.375,8.1875 l 10.90625,-4.96875 C 155.65791,74.755862 155.5,73.663871 155.5,72.5625 c 0,-2.983379 0.9581,-5.72947 2.59375,-7.96875 L 149.9375,55.8125 z m -29.09375,8.375 c -1.81315,0 -3.28125,1.468102 -3.28125,3.28125 0,1.813148 1.4681,3.28125 3.28125,3.28125 1.81315,0 3.28125,-1.468102 3.28125,-3.28125 0,-1.813148 -1.4681,-3.28125 -3.28125,-3.28125 z m 48.21875,3.28125 c -2.78946,0 -5.03125,2.241791 -5.03125,5.03125 0,2.789459 2.24179,5.0625 5.03125,5.0625 2.78946,0 5.0625,-2.273041 5.0625,-5.0625 0,-2.789459 -2.27304,-5.03125 -5.0625,-5.03125 z M 181.6875,77.5 c -1.44987,3.708793 -4.49322,6.621554 -8.28125,7.90625 L 174.03125,90 184,90 c 3.324,0 6,-2.676 6,-6 L 190,79.03125 181.6875,77.5 z m -23.625,2.96875 -10.90625,5 c 0.96641,1.636602 2.11102,3.15601 3.40625,4.53125 l 18.25,0 -0.53125,-3.90625 c -4.20392,-0.242792 -7.90236,-2.407521 -10.21875,-5.625 z M 144.15625,89.75 143.8125,90 l 0.53125,0 -0.1875,-0.25 z"
         id="path3838" />
    </clipPath>
    <clipPath
       clipPathUnits="userSpaceOnUse"
       id="clipPath3867">
      <path
         style="fill:#ffffff;fill-opacity:1;stroke:none;display:inline"
         clip-path="none"
         d="m 115.78125,6 c -5.78119,3.1123067 -9.71875,9.225149 -9.71875,16.25 0,10.181526 8.25597,18.4375 18.4375,18.4375 10.18153,0 18.4375,-8.255974 18.4375,-18.4375 0,-7.024851 -3.93756,-13.1376933 -9.71875,-16.25 l -17.4375,0 z m 24.78125,0 c 4.09802,4.129345 6.625,9.818866 6.625,16.09375 0,12.612729 -10.23102,22.84375 -22.84375,22.84375 -7.50479,10e-7 -14.17899,-3.627823 -18.34375,-9.21875 l 0,7.875 0.21875,-0.15625 0.4375,-0.53125 2.1875,1.6875 -0.40625,0.5625 -0.625,1.75 -0.375,2.71875 1.5625,0.875 2.15625,-1.65625 1.1875,-1.4375 0.3125,-0.625 2.53125,1.0625 -0.25,0.65625 -0.15625,1.84375 0.375,2.71875 1.71875,0.46875 1.6875,-2.1875 0.75,-1.6875 0.125,-0.6875 2.75,0.375 L 122.125,50 l 0.28125,1.84375 1.0625,2.53125 1.78125,0 1.0625,-2.53125 L 126.625,50 l -0.0625,-0.65625 2.71875,-0.375 0.125,0.6875 0.78125,1.6875 1.65625,2.1875 1.71875,-0.46875 0.375,-2.71875 L 133.75,48.5 l -0.21875,-0.65625 2.53125,-1.0625 0.3125,0.625 1.15625,1.4375 2.1875,1.65625 1.53125,-0.875 -0.34375,-2.71875 -0.65625,-1.75 -0.375,-0.5625 2.1875,-1.6875 0.4375,0.53125 1.5,1.0625 2.5625,1.0625 1.25,-1.28125 -1.0625,-2.53125 -1.0625,-1.5 -0.53125,-0.4375 1.6875,-2.1875 0.5625,0.375 1.75,0.65625 L 151.875,39 l 0.875,-1.53125 -1.65625,-2.1875 -1.4375,-1.1875 -0.625,-0.25 1.0625,-2.5625 0.65625,0.21875 1.84375,0.1875 2.71875,-0.375 0.4375,-1.71875 -2.15625,-1.6875 -1.6875,-0.75 -0.6875,-0.125 0.375,-2.75 0.6875,0.0625 1.8125,-0.3125 L 156.625,23 l 0,-1.78125 -2.53125,-1.0625 -1.8125,-0.3125 -0.6875,0.0625 -0.375,-2.75 0.6875,-0.125 1.6875,-0.75 2.15625,-1.6875 -0.4375,-1.71875 -2.71875,-0.34375 -1.84375,0.15625 -0.65625,0.25 -1.0625,-2.5625 0.625,-0.28125 1.4375,-1.1875 L 152.75,6.75 152.34375,6 l -4.4375,0 -0.5,0.1875 -0.5625,0.40625 L 146.375,6 140.5625,6 z M 124.5,8.625 c 7.53154,0 13.625,6.09346 13.625,13.625 0,7.53154 -6.09346,13.65625 -13.625,13.65625 -7.53154,0 -13.65625,-6.12471 -13.65625,-13.65625 0,-7.53154 6.12471,-13.625 13.65625,-13.625 z m 43.59375,28.21875 -1.1875,2.8125 -0.34375,2 0.0625,0.78125 -3.03125,0.375 -0.125,-0.71875 -0.84375,-1.875 -1.875,-2.40625 -1.875,0.5 -0.40625,3 0.1875,2.0625 0.25,0.6875 -2.8125,1.1875 -0.3125,-0.6875 -1.3125,-1.59375 -2.4375,-1.84375 -1.6875,1 0.40625,3.03125 0.6875,1.875 0.4375,0.65625 -2.40625,1.84375 -0.5,-0.5625 L 147.3125,47.75 144.5,46.625 143.09375,48 l 1.15625,2.8125 1.1875,1.65625 0.59375,0.5 -1.875,2.4375 -0.625,-0.4375 -1.90625,-0.71875 -3,-0.40625 -1,1.71875 1.84375,2.40625 1.59375,1.3125 0.65625,0.3125 -1.15625,2.8125 -0.71875,-0.25 -2.03125,-0.1875 -3,0.40625 -0.53125,1.90625 2.40625,1.84375 1.875,0.84375 0.75,0.15625 -0.40625,3.03125 -0.75,-0.0625 -2.03125,0.3125 -2.8125,1.1875 0,1.96875 2.8125,1.15625 2.03125,0.34375 0.75,-0.0625 0.40625,3.03125 -0.75,0.15625 -1.875,0.8125 -2.40625,1.875 0.53125,1.90625 3,0.40625 2.03125,-0.21875 0.71875,-0.25 1.15625,2.8125 -0.65625,0.34375 -1.59375,1.28125 -1.84375,2.4375 0.25,0.40625 5.9375,0 0.34375,-0.25 0.1875,0.25 6.21875,0 c -1.29523,-1.37524 -2.43984,-2.894648 -3.40625,-4.53125 l 10.90625,-5 c 2.31639,3.217479 6.01482,5.382208 10.21875,5.625 L 168.8125,90 l 5.21875,0 -0.625,-4.59375 c 3.78803,-1.284696 6.83138,-4.197457 8.28125,-7.90625 L 190,79.03125 190,73.75 182.625,72.40625 c -0.0504,-4.233581 -2.06895,-7.986155 -5.15625,-10.4375 l 5.5,-10.65625 c 2.76801,1.813686 5.15704,4.157048 7.03125,6.875 l 0,-9.84375 -0.84375,0.625 -0.5,0.5625 -2.40625,-1.84375 0.40625,-0.65625 0.75,-1.875 0.375,-3.03125 -1.71875,-1 -2.40625,1.84375 -1.28125,1.59375 -0.34375,0.6875 -2.8125,-1.1875 0.25,-0.6875 0.21875,-2.0625 -0.4375,-3 -1.875,-0.5 -1.875,2.40625 -0.84375,1.875 -0.125,0.71875 -3.03125,-0.375 0.0625,-0.78125 -0.34375,-2 -1.15625,-2.8125 -1.96875,0 z m 0.96875,10.3125 c 3.2847,0 6.43014,0.645954 9.3125,1.78125 l -5.5,10.625 c -1.20945,-0.35429 -2.48898,-0.53125 -3.8125,-0.53125 -2.62433,0 -5.08015,0.738068 -7.15625,2.03125 L 153.75,52.28125 c 4.26057,-3.217148 9.56672,-5.125 15.3125,-5.125 z m -48.75,6.3125 -0.96875,2.09375 -0.0625,0.71875 0.1875,1.25 -2.25,0.59375 -0.4375,-1.1875 -0.4375,-0.59375 L 114.5,55 l -1.09375,0.625 0.21875,2.28125 0.3125,0.65625 0.78125,1 -1.625,1.625 -1,-0.78125 -0.65625,-0.3125 -2.28125,-0.21875 -0.625,1.0625 1.34375,1.84375 0.59375,0.4375 1.15625,0.46875 -0.59375,2.21875 -1.25,-0.1875 -0.75,0.0625 -2.0625,0.9375 0,1.25 2.0625,0.9375 0.75,0.0625 1.25,-0.15625 0.59375,2.21875 -1.1875,0.46875 -0.59375,0.40625 -1.34375,1.875 0.59375,1.0625 2.28125,-0.21875 0.6875,-0.3125 1,-0.78125 1.625,1.625 -0.8125,1 -0.3125,0.6875 -0.21875,2.25 1.0625,0.625 1.875,-1.3125 0.40625,-0.59375 0.5,-1.1875 2.21875,0.59375 -0.1875,1.25 0.0625,0.75 0.9375,2.09375 1.21875,0 0.96875,-2.09375 0.0625,-0.71875 -0.1875,-1.28125 2.21875,-0.5625 0.46875,1.15625 0.4375,0.625 1.84375,1.3125 1.0625,-0.59375 -0.21875,-2.28125 -0.28125,-0.65625 -0.78125,-1 1.625,-1.625 1,0.78125 0.65625,0.3125 2.28125,0.21875 0.625,-1.0625 L 131.875,72 l -0.59375,-0.4375 -1.1875,-0.46875 0.625,-2.21875 1.25,0.1875 0.71875,-0.0625 2.09375,-0.9375 0,-1.25 -2.0625,-0.9375 -0.75,-0.09375 -1.25,0.1875 -0.59375,-2.21875 1.1875,-0.46875 0.59375,-0.4375 L 133.25,61 l -0.625,-1.0625 -2.25,0.21875 -0.6875,0.3125 -1,0.78125 -1.625,-1.65625 0.8125,-0.96875 0.28125,-0.6875 0.25,-2.25 -1.0625,-0.625 -1.875,1.3125 -0.4375,0.59375 -0.46875,1.1875 -2.21875,-0.59375 0.1875,-1.28125 -0.0625,-0.71875 -0.9375,-2.09375 -1.21875,0 z m 29.625,2.34375 8.15625,8.78125 C 156.4581,66.83303 155.5,69.579121 155.5,72.5625 c 0,1.101371 0.15791,2.193362 0.40625,3.21875 L 145,80.75 c -0.87766,-2.573536 -1.375,-5.318808 -1.375,-8.1875 0,-6.420779 2.37994,-12.275157 6.3125,-16.75 z m -29.09375,8.375 c 1.81315,0 3.28125,1.468102 3.28125,3.28125 0,1.813148 -1.4681,3.28125 -3.28125,3.28125 -1.81315,0 -3.28125,-1.468102 -3.28125,-3.28125 0,-1.813148 1.4681,-3.28125 3.28125,-3.28125 z m 48.21875,3.28125 c 2.78946,0 5.0625,2.241791 5.0625,5.03125 0,2.789459 -2.27304,5.0625 -5.0625,5.0625 -2.78946,0 -5.03125,-2.273041 -5.03125,-5.0625 0,-2.789459 2.24179,-5.03125 5.03125,-5.03125 z"
         id="path3869" />
    </clipPath>
    <inkscape:perspective
       id="perspective3762"
       inkscape:persp3d-origin="0.5 : 0.33333333 : 1"
       inkscape:vp_z="1 : 0.5 : 1"
       inkscape:vp_y="0 : 1000 : 0"
       inkscape:vp_x="0 : 0.5 : 1"
       sodipodi:type="inkscape:persp3d" />
    <linearGradient
       gradientTransform="translate(11.119372,-6.2581977)"
       gradientUnits="userSpaceOnUse"
       y2="7.2536583"
       x2="-3.0607977"
       y1="27.258198"
       x1="-3.0607977"
       id="linearGradient3181"
       xlink:href="#ButtonColor-7"
       inkscape:collect="always" />
    <linearGradient
       gradientUnits="userSpaceOnUse"
       y2="0.99929649"
       x2="10.31979"
       y1="21"
       x1="10.31979"
       id="ButtonColor-7">
      <stop
         id="stop3189"
         offset="0"
         style="stop-color:#787878;stop-opacity:1;" />
      <stop
         id="stop3191"
         offset="1"
         style="stop-color:#b4b4b4;stop-opacity:1;" />
    </linearGradient>
    <linearGradient
       y2="7.2536583"
       x2="-3.0607977"
       y1="27.258198"
       x1="-3.0607977"
       gradientTransform="translate(120.8326,-11.161774)"
       gradientUnits="userSpaceOnUse"
       id="linearGradient3771"
       xlink:href="#ButtonColor-7"
       inkscape:collect="always" />
    <inkscape:perspective
       id="perspective3781"
       inkscape:persp3d-origin="0.5 : 0.33333333 : 1"
       inkscape:vp_z="1 : 0.5 : 1"
       inkscape:vp_y="0 : 1000 : 0"
       inkscape:vp_x="0 : 0.5 : 1"
       sodipodi:type="inkscape:persp3d" />
    <linearGradient
       inkscape:collect="always"
       xlink:href="#linearGradient3658"
       id="linearGradient3754"
       gradientUnits="userSpaceOnUse"
       x1="11.087322"
       y1="15.37313"
       x2="10.540542"
       y2="4.9937253" />
    <linearGradient
       id="linearGradient3658">
      <stop
         style="stop-color:#ff9604;stop-opacity:1;"
         offset="0"
         id="stop3660" />
      <stop
         style="stop-color:#fff580;stop-opacity:1;"
         offset="1"
         id="stop3662" />
    </linearGradient>
    <linearGradient
       y2="4.9937253"
       x2="10.540542"
       y1="15.37313"
       x1="11.087322"
       gradientUnits="userSpaceOnUse"
       id="linearGradient3790"
       xlink:href="#linearGradient3658"
       inkscape:collect="always" />
    <linearGradient
       inkscape:collect="always"
       xlink:href="#linearGradient3686"
       id="linearGradient3692"
       x1="48.714287"
       y1="76.203125"
       x2="48.714287"
       y2="18.702017"
       gradientUnits="userSpaceOnUse" />
    <linearGradient
       inkscape:collect="always"
       xlink:href="#linearGradient3701"
       id="linearGradient3707"
       x1="52.82143"
       y1="32.810268"
       x2="52.82143"
       y2="74.18531"
       gradientUnits="userSpaceOnUse" />
    <clipPath
       clipPathUnits="userSpaceOnUse"
       id="clipPath3725">
      <path
         transform="matrix(5.594521,0.29482098,-0.29471615,5.5955932,-8.977093,-12.185726)"
         d="M 10.5,5.875 9.28125,8.5 A 0.3963786,0.3963786 0 0 1 9,8.71875 l -2.875,0.6875 2.15625,2 a 0.3963786,0.3963786 0 0 1 0.125,0.3125 l -0.25,2.90625 2.5625,-1.40625 A 0.3963786,0.3963786 0 0 1 11.0625,13.1875 L 13.75,14.34375 13.1875,11.4375 a 0.3963786,0.3963786 0 0 1 0.09375,-0.3125 l 1.9375,-2.1875 -2.9375,-0.34375 A 0.3963786,0.3963786 0 0 1 12,8.40625 L 10.5,5.875 z"
         id="path3727"
         style="fill:#ff00ff;fill-opacity:1;stroke:none;display:inline"
         inkscape:original="M 10.4375 5 L 8.90625 8.34375 L 5.3125 9.1875 L 8 11.6875 L 7.6875 15.34375 L 10.90625 13.5625 L 14.28125 15 L 13.5625 11.375 L 16 8.625 L 12.34375 8.1875 L 10.4375 5 z "
         inkscape:radius="-0.39633897"
         sodipodi:type="inkscape:offset" />
    </clipPath>
    <inkscape:perspective
       id="perspective3017"
       inkscape:persp3d-origin="0.5 : 0.33333333 : 1"
       inkscape:vp_z="1 : 0.5 : 1"
       inkscape:vp_y="0 : 1000 : 0"
       inkscape:vp_x="0 : 0.5 : 1"
       sodipodi:type="inkscape:persp3d" />
    <linearGradient
       y2="90.238609"
       x2="32.251034"
       y1="6.1317081"
       x1="32.251034"
       gradientTransform="matrix(1.0238095,0,0,1.0119048,-1.1428571,-98.071429)"
       gradientUnits="userSpaceOnUse"
       id="linearGradient3026"
       xlink:href="#ButtonShadow-0"
       inkscape:collect="always" />
    <linearGradient
       id="ButtonShadow-0"
       gradientTransform="matrix(1.0058652,0,0,0.994169,100,0)"
       x1="45.447727"
       y1="92.539597"
       x2="45.447727"
       y2="7.0165396"
       gradientUnits="userSpaceOnUse">
      <stop
         style="stop-color:#000000;stop-opacity:1;"
         offset="0"
         id="stop3750-8" />
      <stop
         style="stop-color:#000000;stop-opacity:0.58823532;"
         offset="1"
         id="stop3752-5" />
    </linearGradient>
    <linearGradient
       inkscape:collect="always"
       xlink:href="#ButtonShadow-0"
       id="linearGradient3780"
       gradientUnits="userSpaceOnUse"
       gradientTransform="matrix(1.0238095,0,0,1.0119048,-1.1428571,-98.071429)"
       x1="32.251034"
       y1="6.1317081"
       x2="32.251034"
       y2="90.238609" />
    <linearGradient
       id="linearGradient3027"
       gradientTransform="matrix(1.0058652,0,0,0.994169,100,0)"
       x1="45.447727"
       y1="92.539597"
       x2="45.447727"
       y2="7.0165396"
       gradientUnits="userSpaceOnUse">
      <stop
         style="stop-color:#000000;stop-opacity:1;"
         offset="0"
         id="stop3029" />
      <stop
         style="stop-color:#000000;stop-opacity:0.58823532;"
         offset="1"
         id="stop3031" />
    </linearGradient>
    <linearGradient
       inkscape:collect="always"
       xlink:href="#ButtonShadow-0"
       id="linearGradient3772"
       gradientUnits="userSpaceOnUse"
       gradientTransform="matrix(1.0238095,0,0,1.0119048,-1.1428571,-98.071429)"
       x1="32.251034"
       y1="6.1317081"
       x2="32.251034"
       y2="90.238609" />
    <linearGradient
       id="linearGradient3034"
       gradientTransform="matrix(1.0058652,0,0,0.994169,100,0)"
       x1="45.447727"
       y1="92.539597"
       x2="45.447727"
       y2="7.0165396"
       gradientUnits="userSpaceOnUse">
      <stop
         style="stop-color:#000000;stop-opacity:1;"
         offset="0"
         id="stop3036" />
      <stop
         style="stop-color:#000000;stop-opacity:0.58823532;"
         offset="1"
         id="stop3038" />
    </linearGradient>
    <linearGradient
       inkscape:collect="always"
       xlink:href="#ButtonShadow-0"
       id="linearGradient3725"
       gradientUnits="userSpaceOnUse"
       gradientTransform="matrix(1.0238095,0,0,1.0119048,-1.1428571,-98.071429)"
       x1="32.251034"
       y1="6.1317081"
       x2="32.251034"
       y2="90.238609" />
    <linearGradient
       id="linearGradient3041"
       gradientTransform="matrix(1.0058652,0,0,0.994169,100,0)"
       x1="45.447727"
       y1="92.539597"
       x2="45.447727"
       y2="7.0165396"
       gradientUnits="userSpaceOnUse">
      <stop
         style="stop-color:#000000;stop-opacity:1;"
         offset="0"
         id="stop3043" />
      <stop
         style="stop-color:#000000;stop-opacity:0.58823532;"
         offset="1"
         id="stop3045" />
    </linearGradient>
    <linearGradient
       inkscape:collect="always"
       xlink:href="#ButtonShadow-0"
       id="linearGradient3721"
       gradientUnits="userSpaceOnUse"
       gradientTransform="translate(0,-97)"
       x1="32.251034"
       y1="6.1317081"
       x2="32.251034"
       y2="90.238609" />
    <linearGradient
       id="linearGradient3048"
       gradientTransform="matrix(1.0058652,0,0,0.994169,100,0)"
       x1="45.447727"
       y1="92.539597"
       x2="45.447727"
       y2="7.0165396"
       gradientUnits="userSpaceOnUse">
      <stop
         style="stop-color:#000000;stop-opacity:1;"
         offset="0"
         id="stop3050" />
      <stop
         style="stop-color:#000000;stop-opacity:0.58823532;"
         offset="1"
         id="stop3052" />
    </linearGradient>
    <linearGradient
       y2="90.238609"
       x2="32.251034"
       y1="6.1317081"
       x1="32.251034"
       gradientTransform="matrix(1.0238095,0,0,1.0119048,-1.1428571,-98.071429)"
       gradientUnits="userSpaceOnUse"
       id="linearGradient3059"
       xlink:href="#ButtonShadow-0"
       inkscape:collect="always" />
    <clipPath
       clipPathUnits="userSpaceOnUse"
       id="clipPath4403">
      <path
         inkscape:connector-curvature="0"
         style="fill:url(#linearGradient4407);fill-opacity:1;fill-rule:nonzero;stroke:none;stroke-width:1;marker:none;visibility:visible;display:block;overflow:visible;enable-background:accumulate"
         d="m 30.916245,135.971 c -0.937266,0.54113 -1.228304,1.74752 -0.677924,2.7008 l 1.9375,3.35585 c -1.418086,1.4141 -2.622273,3.01198 -3.595451,4.71 l -3.783634,-0.99095 c -0.531629,-0.14245 -1.037926,-0.11751 -1.476221,0.13061 -0.438159,0.24835 -0.796545,0.66758 -0.936598,1.19027 l -1.978825,7.38507 c -0.280102,1.04538 0.365953,2.06538 1.429126,2.35032 l 3.772195,1.03363 c -0.0062,1.95711 0.237711,3.94301 0.758755,5.87671 l -3.355849,1.9375 c -0.95328,0.55037 -1.304431,1.74066 -0.763301,2.67792 l 3.8125,6.60344 c 0.54113,0.93727 1.747521,1.2283 2.700801,0.67793 l 3.355849,-1.9375 c 1.414106,1.41808 3.011983,2.62227 4.709995,3.59545 l -0.990945,3.78363 c -0.284894,1.06325 0.275431,2.13275 1.320874,2.41282 l 7.385075,1.97883 c 1.045371,0.28011 2.065425,-0.36588 2.35032,-1.42913 l 1.033633,-3.77219 c 1.957118,0.006 3.943015,-0.23771 5.876701,-0.75876 l 1.9375,3.35585 c 0.550375,0.95328 1.740658,1.30443 2.677924,0.7633 l 6.603444,-3.8125 c 0.937258,-0.54113 1.228299,-1.74752 0.677924,-2.7008 l -1.9375,-3.35585 c 1.418087,-1.4141 2.622272,-3.01197 3.595452,-4.70999 l 3.783633,0.99094 c 1.063244,0.2849 2.132709,-0.27549 2.41282,-1.32087 l 1.978825,-7.38508 c 0.280102,-1.04537 -0.365953,-2.06538 -1.429127,-2.35032 l -3.772195,-1.03363 c 0.0062,-1.95711 -0.237701,-3.94301 -0.758754,-5.8767 l 3.355848,-1.9375 c 0.953272,-0.55037 1.304431,-1.74066 0.763301,-2.67793 l -3.8125,-6.60344 c -0.54113,-0.93726 -1.747529,-1.2283 -2.700801,-0.67792 l -3.355849,1.9375 c -1.414093,-1.4181 -3.011984,-2.62228 -4.709995,-3.59546 l 0.990945,-3.78363 c 0.284894,-1.06324 -0.275422,-2.13275 -1.320874,-2.41282 l -7.385074,-1.97882 c -1.045381,-0.28011 -2.065426,0.36588 -2.35032,1.42912 l -1.033633,3.7722 c -1.95712,-0.006 -3.943015,0.2377 -5.876702,0.75875 l -1.9375,-3.35585 c -0.55038,-0.95328 -1.740666,-1.30442 -2.677924,-0.7633 l -6.603444,3.8125 z m 10.051722,9.7851 c 6.696096,-3.866 15.258361,-1.57175 19.124356,5.12435 3.865995,6.6961 1.57174,15.25836 -5.124356,19.12436 -6.696096,3.86599 -15.258361,1.57174 -19.124356,-5.12436 -3.865995,-6.6961 -1.57174,-15.25836 5.124356,-19.12435 z"
         id="path4405" />
    </clipPath>
    <linearGradient
       inkscape:collect="always"
       xlink:href="#linearGradient4071-3"
       id="linearGradient4213"
       gradientUnits="userSpaceOnUse"
       x1="48.233639"
       y1="48.047016"
       x2="126.13924"
       y2="66.232674" />
    <linearGradient
       inkscape:collect="always"
       id="linearGradient4071-3">
      <stop
         style="stop-color:#000000;stop-opacity:1;"
         offset="0"
         id="stop4073-8" />
      <stop
         style="stop-color:#000000;stop-opacity:0;"
         offset="1"
         id="stop4075-4" />
    </linearGradient>
    <linearGradient
       inkscape:collect="always"
       xlink:href="#linearGradient4047-2"
       id="linearGradient4215"
       gradientUnits="userSpaceOnUse"
       x1="48.055065"
       y1="48.031517"
       x2="126.67282"
       y2="62.838562" />
    <linearGradient
       inkscape:collect="always"
       id="linearGradient4047-2">
      <stop
         style="stop-color:#000000;stop-opacity:1;"
         offset="0"
         id="stop4049-0" />
      <stop
         style="stop-color:#000000;stop-opacity:0;"
         offset="1"
         id="stop4051-5" />
    </linearGradient>
    <linearGradient
       inkscape:collect="always"
       xlink:href="#linearGradient4047-2"
       id="linearGradient4217"
       gradientUnits="userSpaceOnUse"
       x1="47.997307"
       y1="48.028725"
       x2="127.05216"
       y2="60.289631" />
    <linearGradient
       inkscape:collect="always"
       xlink:href="#linearGradient4047-2"
       id="linearGradient4219"
       gradientUnits="userSpaceOnUse"
       x1="47.99826"
       y1="48.028797"
       x2="127.41583"
       y2="57.664623" />
    <linearGradient
       inkscape:collect="always"
       xlink:href="#linearGradient4115-2"
       id="linearGradient4221"
       gradientUnits="userSpaceOnUse"
       x1="48.233643"
       y1="48.04702"
       x2="126.13924"
       y2="66.232674" />
    <linearGradient
       inkscape:collect="always"
       id="linearGradient4115-2">
      <stop
         style="stop-color:#ffffff;stop-opacity:1;"
         offset="0"
         id="stop4117-3" />
      <stop
         style="stop-color:#ffffff;stop-opacity:0;"
         offset="1"
         id="stop4119-6" />
    </linearGradient>
    <linearGradient
       inkscape:collect="always"
       xlink:href="#linearGradient4115-2"
       id="linearGradient4223"
       gradientUnits="userSpaceOnUse"
       x1="48.055069"
       y1="48.031521"
       x2="126.67282"
       y2="62.838566" />
    <linearGradient
       inkscape:collect="always"
       xlink:href="#linearGradient4115-2"
       id="linearGradient4225"
       gradientUnits="userSpaceOnUse"
       x1="47.997311"
       y1="48.028728"
       x2="127.05216"
       y2="60.289635" />
    <linearGradient
       inkscape:collect="always"
       xlink:href="#linearGradient4115-2"
       id="linearGradient4227"
       gradientUnits="userSpaceOnUse"
       x1="47.998264"
       y1="48.028801"
       x2="127.41583"
       y2="57.664627" />
    <linearGradient
       inkscape:collect="always"
       xlink:href="#linearGradient4071-3"
       id="linearGradient4229"
       gradientUnits="userSpaceOnUse"
       x1="48.233639"
       y1="48.047016"
       x2="126.13924"
       y2="66.232674" />
    <linearGradient
       inkscape:collect="always"
       xlink:href="#linearGradient4047-2"
       id="linearGradient4231"
       gradientUnits="userSpaceOnUse"
       x1="48.055065"
       y1="48.031517"
       x2="126.67282"
       y2="62.838562" />
    <linearGradient
       inkscape:collect="always"
       xlink:href="#linearGradient4047-2"
       id="linearGradient4233"
       gradientUnits="userSpaceOnUse"
       x1="47.997307"
       y1="48.028725"
       x2="127.05216"
       y2="60.289631" />
    <linearGradient
       inkscape:collect="always"
       xlink:href="#linearGradient4047-2"
       id="linearGradient4235"
       gradientUnits="userSpaceOnUse"
       x1="47.99826"
       y1="48.028797"
       x2="127.41583"
       y2="57.664623" />
    <linearGradient
       inkscape:collect="always"
       xlink:href="#linearGradient4071-3"
       id="linearGradient4237"
       gradientUnits="userSpaceOnUse"
       x1="48.233639"
       y1="48.047016"
       x2="126.13924"
       y2="66.232674" />
    <linearGradient
       inkscape:collect="always"
       xlink:href="#linearGradient4047-2"
       id="linearGradient4239"
       gradientUnits="userSpaceOnUse"
       x1="48.055065"
       y1="48.031517"
       x2="126.67282"
       y2="62.838562" />
    <linearGradient
       inkscape:collect="always"
       xlink:href="#linearGradient4047-2"
       id="linearGradient4241"
       gradientUnits="userSpaceOnUse"
       x1="47.997307"
       y1="48.028725"
       x2="127.05216"
       y2="60.289631" />
    <linearGradient
       inkscape:collect="always"
       xlink:href="#linearGradient4047-2"
       id="linearGradient4243"
       gradientUnits="userSpaceOnUse"
       x1="47.99826"
       y1="48.028797"
       x2="127.41583"
       y2="57.664623" />
    <linearGradient
       inkscape:collect="always"
       xlink:href="#linearGradient4115-2"
       id="linearGradient4245"
       gradientUnits="userSpaceOnUse"
       x1="48.233643"
       y1="48.04702"
       x2="126.13924"
       y2="66.232674" />
    <linearGradient
       inkscape:collect="always"
       xlink:href="#linearGradient4115-2"
       id="linearGradient4247"
       gradientUnits="userSpaceOnUse"
       x1="48.055069"
       y1="48.031521"
       x2="126.67282"
       y2="62.838566" />
    <linearGradient
       inkscape:collect="always"
       xlink:href="#linearGradient4115-2"
       id="linearGradient4249"
       gradientUnits="userSpaceOnUse"
       x1="47.997311"
       y1="48.028728"
       x2="127.05216"
       y2="60.289635" />
    <linearGradient
       inkscape:collect="always"
       xlink:href="#linearGradient4115-2"
       id="linearGradient4251"
       gradientUnits="userSpaceOnUse"
       x1="47.998264"
       y1="48.028801"
       x2="127.41583"
       y2="57.664627" />
    <linearGradient
       y2="45.017357"
       x2="20.758585"
       y1="1"
       x1="20.758585"
       gradientTransform="matrix(1.2790652,0,0,1.2790652,17.302433,18.5815)"
       gradientUnits="userSpaceOnUse"
       id="linearGradient3141"
       xlink:href="#linearGradient3309"
       inkscape:collect="always" />
    <linearGradient
       gradientUnits="userSpaceOnUse"
       id="linearGradient3309"
       y2="122.8994"
       x2="63.9995"
       y1="3.1001"
       x1="63.9995">
      <stop
         offset="0"
         style="stop-color:#f0f0f0;stop-opacity:1;"
         id="stop3311" />
      <stop
         offset="1"
         style="stop-color:#aaaaaa;stop-opacity:1;"
         id="stop3313" />
    </linearGradient>
    <linearGradient
       inkscape:collect="always"
       xlink:href="#linearGradient3737"
       id="linearGradient3914"
       gradientUnits="userSpaceOnUse"
       x1="48"
       y1="20.220806"
       x2="48"
       y2="138.66119" />
    <linearGradient
       inkscape:collect="always"
       xlink:href="#linearGradient3737"
       id="linearGradient3917"
       gradientUnits="userSpaceOnUse"
       x1="48"
       y1="20.220806"
       x2="48"
       y2="138.66119" />
  </defs>
  <sodipodi:namedview
     id="base"
     pagecolor="#ffffff"
     bordercolor="#666666"
     borderopacity="1.0"
     inkscape:pageopacity="0.0"
     inkscape:pageshadow="2"
     inkscape:zoom="3.9716312"
     inkscape:cx="-87.090621"
     inkscape:cy="9.8372341"
     inkscape:document-units="px"
     inkscape:current-layer="layer1"
     showgrid="false"
     showborder="true"
     inkscape:showpageshadow="false"
     inkscape:window-width="1920"
     inkscape:window-height="1030"
     inkscape:window-x="0"
     inkscape:window-y="25"
     inkscape:window-maximized="1"
     inkscape:snap-global="false">
    <inkscape:grid
       type="xygrid"
       id="grid3732"
       visible="true"
       enabled="true" />
  </sodipodi:namedview>
  <metadata
     id="metadata2413">
    <rdf:RDF>
      <cc:Work
         rdf:about="">
        <dc:format>image/svg+xml</dc:format>
        <dc:type
           rdf:resource="http://purl.org/dc/dcmitype/StillImage" />
      </cc:Work>
    </rdf:RDF>
  </metadata>
  <g
     inkscape:groupmode="layer"
     id="layer2"
     inkscape:label="Blur Shadow"
     sodipodi:insensitive="true"
     style="display:none">
    <rect
       style="opacity:0.9;fill:url(#ButtonShadow);fill-opacity:1;fill-rule:nonzero;stroke:none;filter:url(#filter3174)"
       id="rect3745"
       width="86"
       height="85"
       x="5"
       y="7"
       rx="6"
       ry="6" />
  </g>
  <g
     inkscape:groupmode="layer"
     id="layer4"
     inkscape:label="Shadow"
     style="display:inline"
     sodipodi:insensitive="true">
    <path
       sodipodi:type="inkscape:offset"
       inkscape:radius="0.99097413"
       inkscape:original="M 12 -94.03125 C 7.028367 -94.03125 2.96875 -89.971633 2.96875 -85 L 2.96875 -14 C 2.96875 -9.0283671 7.0283671 -4.96875 12 -4.96875 L 84 -4.96875 C 88.971633 -4.96875 93.03125 -9.028367 93.03125 -14 L 93.03125 -85 C 93.03125 -89.971633 88.971633 -94.03125 84 -94.03125 L 12 -94.03125 z "
       style="opacity:0.07999998;fill:url(#linearGradient3059);fill-opacity:1;fill-rule:nonzero;stroke:none;display:inline"
       id="path3786-1"
       d="m 12,-95.03125 c -5.5110903,0 -10.03125,4.52016 -10.03125,10.03125 l 0,71 c 0,5.5110902 4.5201598,10.03125 10.03125,10.03125 l 72,0 c 5.51109,0 10.03125,-4.5201597 10.03125,-10.03125 l 0,-71 c 0,-5.51109 -4.52016,-10.03125 -10.03125,-10.03125 l -72,0 z"
       transform="scale(1,-1)" />
    <path
       sodipodi:type="inkscape:offset"
       inkscape:radius="1.0360184"
       inkscape:original="M 12 -93 C 7.5908667 -93 4 -89.409133 4 -85 L 4 -14 C 4 -9.5908667 7.5908667 -6 12 -6 L 84 -6 C 88.409133 -6 92 -9.5908667 92 -14 L 92 -85 C 92 -89.409133 88.409133 -93 84 -93 L 12 -93 z "
       style="opacity:0.1;fill:url(#linearGradient3780);fill-opacity:1;fill-rule:nonzero;stroke:none;display:inline"
       id="path3778"
       d="m 12,-94.03125 c -4.971633,0 -9.03125,4.059617 -9.03125,9.03125 l 0,71 c 0,4.9716329 4.0596171,9.03125 9.03125,9.03125 l 72,0 c 4.971633,0 9.03125,-4.059617 9.03125,-9.03125 l 0,-71 c 0,-4.971633 -4.059617,-9.03125 -9.03125,-9.03125 l -72,0 z"
       transform="scale(1,-1)" />
    <path
       sodipodi:type="inkscape:offset"
       inkscape:radius="0.98962283"
       inkscape:original="M 12 -92 C 8.122 -92 5 -88.878 5 -85 L 5 -14 C 5 -10.122 8.122 -7 12 -7 L 84 -7 C 87.878 -7 91 -10.122 91 -14 L 91 -85 C 91 -88.878 87.878 -92 84 -92 L 12 -92 z "
       style="opacity:0.2;fill:url(#linearGradient3772);fill-opacity:1;fill-rule:nonzero;stroke:none;display:inline"
       id="path3770"
       d="m 12,-93 c -4.4091333,0 -8,3.590867 -8,8 l 0,71 c 0,4.4091333 3.5908667,8 8,8 l 72,0 c 4.409133,0 8,-3.5908667 8,-8 l 0,-71 c 0,-4.409133 -3.590867,-8 -8,-8 l -72,0 z"
       transform="scale(1,-1)" />
    <rect
       style="opacity:0.3;fill:url(#linearGradient3725);fill-opacity:1;fill-rule:nonzero;stroke:none;display:inline"
       id="rect3723"
       width="86"
       height="85"
       x="5"
       y="-92"
       rx="7"
       ry="7"
       transform="scale(1,-1)" />
    <rect
       transform="scale(1,-1)"
       ry="6"
       rx="6"
       y="-91"
       x="6"
       height="84"
       width="84"
       id="rect3716"
       style="opacity:0.45;fill:url(#linearGradient3721);fill-opacity:1;fill-rule:nonzero;stroke:none;display:inline" />
  </g>
  <g
     inkscape:label="Button"
     inkscape:groupmode="layer"
     id="layer1">
    <rect
       style="fill:url(#linearGradient3617);fill-opacity:1;fill-rule:nonzero;stroke:none"
       id="rect2419"
       width="84"
       height="84"
       x="6"
       y="6"
       rx="6"
       ry="6" />
    <path
       id="path3615"
       d="M 12,90 C 8.676,90 6,87.324 6,84 L 6,82 6,14 6,12 c 0,-0.334721 0.04135,-0.6507 0.09375,-0.96875 0.0487,-0.295596 0.09704,-0.596915 0.1875,-0.875 C 6.29113,10.12587 6.302142,10.09265 6.3125,10.0625 6.411365,9.774729 6.5473802,9.515048 6.6875,9.25 6.8320918,8.976493 7.0031161,8.714385 7.1875,8.46875 7.3718839,8.223115 7.5612765,7.995278 7.78125,7.78125 8.221197,7.353194 8.72416,6.966724 9.28125,6.6875 9.559795,6.547888 9.8547231,6.440553 10.15625,6.34375 9.9000482,6.443972 9.6695391,6.580022 9.4375,6.71875 c -0.00741,0.0044 -0.023866,-0.0045 -0.03125,0 -0.031933,0.0193 -0.062293,0.04251 -0.09375,0.0625 -0.120395,0.0767 -0.2310226,0.163513 -0.34375,0.25 -0.1061728,0.0808 -0.2132809,0.161112 -0.3125,0.25 C 8.4783201,7.442683 8.3087904,7.626638 8.15625,7.8125 8.0486711,7.942755 7.9378561,8.077785 7.84375,8.21875 7.818661,8.25713 7.805304,8.30462 7.78125,8.34375 7.716487,8.446782 7.6510225,8.548267 7.59375,8.65625 7.4927417,8.850956 7.3880752,9.071951 7.3125,9.28125 7.30454,9.30306 7.288911,9.3218 7.28125,9.34375 7.2494249,9.4357 7.2454455,9.530581 7.21875,9.625 7.1884177,9.731618 7.1483606,9.828031 7.125,9.9375 7.0521214,10.279012 7,10.635705 7,11 l 0,2 0,68 0,2 c 0,2.781848 2.2181517,5 5,5 l 2,0 68,0 2,0 c 2.781848,0 5,-2.218152 5,-5 l 0,-2 0,-68 0,-2 C 89,10.635705 88.94788,10.279012 88.875,9.9375 88.83085,9.730607 88.78662,9.539842 88.71875,9.34375 88.71105,9.3218 88.69545,9.30306 88.6875,9.28125 88.62476,9.107511 88.549117,8.913801 88.46875,8.75 88.42717,8.6672 88.38971,8.580046 88.34375,8.5 88.28915,8.40279 88.216976,8.31165 88.15625,8.21875 88.06214,8.077785 87.951329,7.942755 87.84375,7.8125 87.700576,7.63805 87.540609,7.465502 87.375,7.3125 87.36383,7.3023 87.35502,7.29135 87.34375,7.28125 87.205364,7.155694 87.058659,7.046814 86.90625,6.9375 86.803679,6.86435 86.701932,6.784136 86.59375,6.71875 c -0.0074,-0.0045 -0.02384,0.0044 -0.03125,0 -0.232039,-0.138728 -0.462548,-0.274778 -0.71875,-0.375 0.301527,0.0968 0.596455,0.204138 0.875,0.34375 0.55709,0.279224 1.060053,0.665694 1.5,1.09375 0.219973,0.214028 0.409366,0.441865 0.59375,0.6875 0.184384,0.245635 0.355408,0.507743 0.5,0.78125 0.14012,0.265048 0.276135,0.524729 0.375,0.8125 0.01041,0.03078 0.02133,0.06274 0.03125,0.09375 0.09046,0.278085 0.1388,0.579404 0.1875,0.875 C 89.95865,11.3493 90,11.665279 90,12 l 0,2 0,68 0,2 c 0,3.324 -2.676,6 -6,6 l -72,0 z"
       style="opacity:0.2;fill:url(#radialGradient3619);fill-opacity:1;fill-rule:nonzero;stroke:none"
       inkscape:connector-curvature="0" />
    <path
       style="opacity:0.3;fill:url(#linearGradient3188);fill-opacity:1;fill-rule:nonzero;stroke:none"
       d="M 12,6 C 8.676,6 6,8.676 6,12 l 0,2 0,68 0,2 c 0,0.334721 0.04135,0.6507 0.09375,0.96875 0.0487,0.295596 0.09704,0.596915 0.1875,0.875 0.00988,0.03038 0.020892,0.0636 0.03125,0.09375 0.098865,0.287771 0.2348802,0.547452 0.375,0.8125 0.1445918,0.273507 0.3156161,0.535615 0.5,0.78125 0.1843839,0.245635 0.3737765,0.473472 0.59375,0.6875 0.439947,0.428056 0.94291,0.814526 1.5,1.09375 0.278545,0.139612 0.5734731,0.246947 0.875,0.34375 -0.2562018,-0.100222 -0.4867109,-0.236272 -0.71875,-0.375 -0.00741,-0.0044 -0.023866,0.0045 -0.03125,0 -0.031933,-0.0193 -0.062293,-0.04251 -0.09375,-0.0625 -0.120395,-0.0767 -0.2310226,-0.163513 -0.34375,-0.25 -0.1061728,-0.0808 -0.2132809,-0.161112 -0.3125,-0.25 C 8.4783201,88.557317 8.3087904,88.373362 8.15625,88.1875 8.0486711,88.057245 7.9378561,87.922215 7.84375,87.78125 7.818661,87.74287 7.805304,87.69538 7.78125,87.65625 7.716487,87.553218 7.6510225,87.451733 7.59375,87.34375 7.4927417,87.149044 7.3880752,86.928049 7.3125,86.71875 7.30454,86.69694 7.288911,86.6782 7.28125,86.65625 7.2494249,86.5643 7.2454455,86.469419 7.21875,86.375 7.1884177,86.268382 7.1483606,86.171969 7.125,86.0625 7.0521214,85.720988 7,85.364295 7,85 L 7,83 7,15 7,13 C 7,10.218152 9.2181517,8 12,8 l 2,0 68,0 2,0 c 2.781848,0 5,2.218152 5,5 l 0,2 0,68 0,2 c 0,0.364295 -0.05212,0.720988 -0.125,1.0625 -0.04415,0.206893 -0.08838,0.397658 -0.15625,0.59375 -0.0077,0.02195 -0.0233,0.04069 -0.03125,0.0625 -0.06274,0.173739 -0.138383,0.367449 -0.21875,0.53125 -0.04158,0.0828 -0.07904,0.169954 -0.125,0.25 -0.0546,0.09721 -0.126774,0.18835 -0.1875,0.28125 -0.09411,0.140965 -0.204921,0.275995 -0.3125,0.40625 -0.143174,0.17445 -0.303141,0.346998 -0.46875,0.5 -0.01117,0.0102 -0.01998,0.02115 -0.03125,0.03125 -0.138386,0.125556 -0.285091,0.234436 -0.4375,0.34375 -0.102571,0.07315 -0.204318,0.153364 -0.3125,0.21875 -0.0074,0.0045 -0.02384,-0.0044 -0.03125,0 -0.232039,0.138728 -0.462548,0.274778 -0.71875,0.375 0.301527,-0.0968 0.596455,-0.204138 0.875,-0.34375 0.55709,-0.279224 1.060053,-0.665694 1.5,-1.09375 0.219973,-0.214028 0.409366,-0.441865 0.59375,-0.6875 0.184384,-0.245635 0.355408,-0.507743 0.5,-0.78125 0.14012,-0.265048 0.276135,-0.524729 0.375,-0.8125 0.01041,-0.03078 0.02133,-0.06274 0.03125,-0.09375 0.09046,-0.278085 0.1388,-0.579404 0.1875,-0.875 C 89.95865,84.6507 90,84.334721 90,84 l 0,-2 0,-68 0,-2 C 90,8.676 87.324,6 84,6 L 12,6 z"
       id="rect3728"
       inkscape:connector-curvature="0" />
  </g>
  <g
     inkscape:groupmode="layer"
     id="layer5"
     inkscape:label="Highlight"
     sodipodi:insensitive="true">
    <rect
       style="opacity:0.15;fill:url(#linearGradient3917);fill-opacity:1;fill-rule:nonzero;stroke:#ffffff;stroke-width:0.5;stroke-linecap:round;stroke-linejoin:miter;stroke-miterlimit:4;stroke-opacity:1;stroke-dasharray:none;stroke-dashoffset:0;filter:url(#filter3794)"
       id="rect3171"
       width="66"
       height="66"
       x="15"
       y="15"
       rx="12"
       ry="12"
       clip-path="url(#clipPath3613)" />
  </g>
  <g
     inkscape:groupmode="layer"
     id="layer3"
     inkscape:label="Gears"
     sodipodi:insensitive="true">
    <rect
       ry="6"
       rx="6"
       y="106"
       x="6"
       height="84"
       width="84"
       id="rect3774"
       style="fill:#000000;fill-opacity:1;fill-rule:nonzero;stroke:none" />
    <path
       sodipodi:type="inkscape:offset"
       inkscape:radius="1.0394155"
       inkscape:original="M 44.1875 19.4375 C 41.960897 19.4375 40.1875 21.31894 40.1875 23.5 L 40.1875 26.0625 C 39.170856 26.412185 38.200175 26.807374 37.25 27.28125 L 35.4375 25.46875 C 34.766021 24.797276 33.802682 24.228465 32.65625 24.21875 C 31.634126 24.210023 30.602785 24.615959 29.8125 25.40625 L 24.40625 30.8125 C 22.835915 32.382851 22.950818 34.919401 24.46875 36.4375 L 26.28125 38.25 C 25.807375 39.200174 25.412186 40.170858 25.0625 41.1875 L 22.5 41.1875 C 20.318937 41.1875 18.4375 42.960899 18.4375 45.1875 L 18.4375 52.8125 C 18.4375 55.039101 20.318937 56.8125 22.5 56.8125 L 25.0625 56.8125 C 25.412186 57.829143 25.807375 58.799826 26.28125 59.75 L 24.46875 61.5625 C 22.950676 63.080578 22.835779 65.617179 24.40625 67.1875 L 29.8125 72.59375 C 31.382806 74.164072 33.919382 74.049365 35.4375 72.53125 L 37.25 70.71875 C 38.200175 71.192627 39.170856 71.587816 40.1875 71.9375 L 40.1875 74.5 C 40.1875 76.681059 41.960896 78.5625 44.1875 78.5625 L 51.8125 78.5625 C 54.039098 78.5625 55.8125 76.681066 55.8125 74.5 L 55.8125 71.9375 C 56.829144 71.587816 57.799825 71.192627 58.75 70.71875 L 60.5625 72.53125 C 62.080617 74.049371 64.617191 74.164056 66.1875 72.59375 L 71.59375 67.1875 C 73.164087 65.617149 73.049187 63.080598 71.53125 61.5625 L 69.71875 59.75 C 70.192625 58.799827 70.587815 57.829145 70.9375 56.8125 L 73.5 56.8125 C 75.681056 56.8125 77.5625 55.039107 77.5625 52.8125 L 77.5625 45.1875 C 77.5625 42.960894 75.681058 41.1875 73.5 41.1875 L 70.9375 41.1875 C 70.587815 40.170854 70.192626 39.200173 69.71875 38.25 L 71.53125 36.4375 C 73.049317 34.919428 73.164247 32.382823 71.59375 30.8125 L 66.1875 25.40625 C 64.617191 23.835948 62.080617 23.95063 60.5625 25.46875 L 58.75 27.28125 C 57.799825 26.807374 56.829144 26.412185 55.8125 26.0625 L 55.8125 23.5 C 55.8125 21.318934 54.039098 19.4375 51.8125 19.4375 L 44.1875 19.4375 z M 48 37.0625 C 54.630024 37.0625 59.9375 42.369976 59.9375 49 C 59.9375 55.630024 54.630024 60.9375 48 60.9375 C 41.369976 60.9375 36.0625 55.630024 36.0625 49 C 36.0625 42.369976 41.369976 37.0625 48 37.0625 z "
       style="opacity:0.05;fill:#000000;fill-opacity:1;fill-rule:nonzero;stroke:none;stroke-width:1;marker:none;visibility:visible;display:block;overflow:visible;enable-background:accumulate"
       id="path4367"
       d="m 44.1875,18.40625 c -2.812128,0 -5.03125,2.349265 -5.03125,5.09375 l 0,1.875 C 38.598195,25.583065 38.041936,25.784088 37.5,26.03125 l -1.3125,-1.3125 c -0.815424,-0.815417 -2.045979,-1.518664 -3.53125,-1.53125 -1.303265,-0.01113 -2.609586,0.484578 -3.59375,1.46875 l -5.40625,5.40625 c -1.98399,1.98401 -1.846217,5.216073 0.0625,7.125 l 1.3125,1.3125 c -0.247161,0.541936 -0.448185,1.098196 -0.65625,1.65625 l -1.875,0 c -2.744488,0 -5.09375,2.219124 -5.09375,5.03125 l 0,7.625 c 0,2.812126 2.349262,5.03125 5.09375,5.03125 l 1.875,0 c 0.208065,0.558055 0.409089,1.114314 0.65625,1.65625 l -1.3125,1.3125 c -1.908896,1.908901 -2.046661,5.141029 -0.0625,7.125 l 5.40625,5.40625 c 1.983946,1.983966 5.216043,1.846454 7.125,-0.0625 L 37.5,71.96875 c 0.541936,0.247162 1.098195,0.448185 1.65625,0.65625 l 0,1.875 c 0,2.744484 2.219121,5.09375 5.03125,5.09375 l 7.625,0 c 2.812123,0 5.03125,-2.349259 5.03125,-5.09375 l 0,-1.875 C 57.401805,72.416935 57.958064,72.215912 58.5,71.96875 l 1.3125,1.3125 c 1.908959,1.908964 5.141053,2.046443 7.125,0.0625 l 5.40625,-5.40625 c 1.983992,-1.984009 1.846223,-5.216074 -0.0625,-7.125 L 70.96875,59.5 c 0.247162,-0.541935 0.448185,-1.098194 0.65625,-1.65625 l 1.875,0 c 2.744481,0 5.09375,-2.219118 5.09375,-5.03125 l 0,-7.625 c 0,-2.812131 -2.349267,-5.03125 -5.09375,-5.03125 l -1.875,0 C 71.416935,39.598194 71.215912,39.041936 70.96875,38.5 l 1.3125,-1.3125 c 1.908886,-1.908892 2.046695,-5.141025 0.0625,-7.125 L 66.9375,24.65625 c -1.983947,-1.983938 -5.21604,-1.846464 -7.125,0.0625 L 58.5,26.03125 C 57.958064,25.784088 57.401805,25.583065 56.84375,25.375 l 0,-1.875 c 0,-2.744491 -2.219127,-5.09375 -5.03125,-5.09375 l -7.625,0 z M 48,38.09375 c 6.075308,0 10.90625,4.830942 10.90625,10.90625 0,6.075308 -4.830942,10.90625 -10.90625,10.90625 -6.075308,0 -10.90625,-4.830942 -10.90625,-10.90625 0,-6.075308 4.830942,-10.90625 10.90625,-10.90625 z" />
    <path
       sodipodi:type="inkscape:offset"
       inkscape:radius="1.0198039"
       inkscape:original="M 44.1875 20.46875 C 42.537861 20.46875 41.21875 21.8687 41.21875 23.5 L 41.21875 26.71875 C 39.756893 27.168817 38.353516 27.758041 37.03125 28.46875 L 34.71875 26.1875 C 34.19348 25.662234 33.468624 25.256884 32.65625 25.25 C 31.896924 25.243517 31.125769 25.530476 30.53125 26.125 L 25.125 31.53125 C 23.963542 32.69272 24.050421 34.581546 25.1875 35.71875 L 27.46875 38.03125 C 26.758044 39.353515 26.168821 40.756895 25.71875 42.21875 L 22.5 42.21875 C 20.868697 42.21875 19.46875 43.537863 19.46875 45.1875 L 19.46875 52.8125 C 19.46875 54.462137 20.868697 55.78125 22.5 55.78125 L 25.71875 55.78125 C 26.168821 57.243106 26.758044 58.646486 27.46875 59.96875 L 25.1875 62.28125 C 24.050317 63.418436 23.963441 65.307302 25.125 66.46875 L 30.53125 71.875 C 31.692693 73.036455 33.581539 72.949709 34.71875 71.8125 L 37.03125 69.53125 C 38.353517 70.24196 39.756893 70.831183 41.21875 71.28125 L 41.21875 74.5 C 41.21875 76.131299 42.537861 77.53125 44.1875 77.53125 L 51.8125 77.53125 C 53.462134 77.53125 54.78125 76.131306 54.78125 74.5 L 54.78125 71.28125 C 56.243107 70.831183 57.646483 70.24196 58.96875 69.53125 L 61.28125 71.8125 C 62.418457 72.94971 64.307303 73.036445 65.46875 71.875 L 70.875 66.46875 C 72.03646 65.30728 71.949582 63.418453 70.8125 62.28125 L 68.53125 59.96875 C 69.241957 58.646487 69.831181 57.24311 70.28125 55.78125 L 73.5 55.78125 C 75.131297 55.78125 76.53125 54.462143 76.53125 52.8125 L 76.53125 45.1875 C 76.53125 43.537858 75.131299 42.21875 73.5 42.21875 L 70.28125 42.21875 C 69.831182 40.756889 69.241957 39.353513 68.53125 38.03125 L 70.8125 35.71875 C 71.949679 34.581567 72.036577 32.692698 70.875 31.53125 L 65.46875 26.125 C 64.307303 24.963558 62.418457 25.050291 61.28125 26.1875 L 58.96875 28.46875 C 57.646484 27.758041 56.243107 27.168817 54.78125 26.71875 L 54.78125 23.5 C 54.78125 21.868694 53.462134 20.46875 51.8125 20.46875 L 44.1875 20.46875 z M 48 36.03125 C 55.178426 36.03125 60.96875 41.821574 60.96875 49 C 60.96875 56.178426 55.178426 61.96875 48 61.96875 C 40.821574 61.96875 35.03125 56.178426 35.03125 49 C 35.03125 41.821574 40.821574 36.03125 48 36.03125 z "
       style="opacity:0.07999998;fill:#000000;fill-opacity:1;fill-rule:nonzero;stroke:none;stroke-width:1;marker:none;visibility:visible;display:block;overflow:visible;enable-background:accumulate"
       id="path4363"
       d="m 44.1875,19.4375 c -2.226603,0 -4,1.88144 -4,4.0625 l 0,2.5625 c -1.016644,0.349685 -1.987325,0.744874 -2.9375,1.21875 l -1.8125,-1.8125 c -0.671479,-0.671474 -1.634818,-1.240285 -2.78125,-1.25 -1.022124,-0.0087 -2.053465,0.397209 -2.84375,1.1875 l -5.40625,5.40625 c -1.570335,1.570351 -1.455432,4.106901 0.0625,5.625 l 1.8125,1.8125 c -0.473875,0.950174 -0.869064,1.920858 -1.21875,2.9375 l -2.5625,0 c -2.181063,0 -4.0625,1.773399 -4.0625,4 l 0,7.625 c 0,2.226601 1.881437,4 4.0625,4 l 2.5625,0 c 0.349686,1.016643 0.744875,1.987326 1.21875,2.9375 l -1.8125,1.8125 c -1.518074,1.518078 -1.632971,4.054679 -0.0625,5.625 l 5.40625,5.40625 c 1.570306,1.570322 4.106882,1.455615 5.625,-0.0625 l 1.8125,-1.8125 c 0.950175,0.473877 1.920856,0.869066 2.9375,1.21875 l 0,2.5625 c 0,2.181059 1.773396,4.0625 4,4.0625 l 7.625,0 c 2.226598,0 4,-1.881434 4,-4.0625 l 0,-2.5625 c 1.016644,-0.349684 1.987325,-0.744873 2.9375,-1.21875 l 1.8125,1.8125 c 1.518117,1.518121 4.054691,1.632806 5.625,0.0625 l 5.40625,-5.40625 c 1.570337,-1.570351 1.455437,-4.106902 -0.0625,-5.625 L 69.71875,59.75 c 0.473875,-0.950173 0.869065,-1.920855 1.21875,-2.9375 l 2.5625,0 c 2.181056,0 4.0625,-1.773393 4.0625,-4 l 0,-7.625 c 0,-2.226606 -1.881442,-4 -4.0625,-4 l -2.5625,0 C 70.587815,40.170854 70.192626,39.200173 69.71875,38.25 l 1.8125,-1.8125 c 1.518067,-1.518072 1.632997,-4.054677 0.0625,-5.625 L 66.1875,25.40625 c -1.570309,-1.570302 -4.106883,-1.45562 -5.625,0.0625 L 58.75,27.28125 C 57.799825,26.807374 56.829144,26.412185 55.8125,26.0625 l 0,-2.5625 c 0,-2.181066 -1.773402,-4.0625 -4,-4.0625 l -7.625,0 z M 48,37.0625 c 6.630024,0 11.9375,5.307476 11.9375,11.9375 0,6.630024 -5.307476,11.9375 -11.9375,11.9375 -6.630024,0 -11.9375,-5.307476 -11.9375,-11.9375 0,-6.630024 5.307476,-11.9375 11.9375,-11.9375 z" />
    <path
       sodipodi:type="inkscape:offset"
       inkscape:radius="1.0242761"
       inkscape:original="M 44.1875 21.5 C 43.105238 21.5 42.25 22.399245 42.25 23.5 L 42.25 27.375 C 40.314853 27.890597 38.473058 28.672312 36.78125 29.65625 L 34 26.90625 C 33.610821 26.517074 33.159884 26.285518 32.65625 26.28125 C 32.152617 26.27695 31.632631 26.461116 31.25 26.84375 L 25.84375 32.25 C 25.078488 33.01527 25.127984 34.221648 25.90625 35 L 28.65625 37.78125 C 27.672316 39.473053 26.89061 41.314849 26.375 43.25 L 22.5 43.25 C 21.399247 43.25 20.5 44.105244 20.5 45.1875 L 20.5 52.8125 C 20.5 53.894756 21.399247 54.75 22.5 54.75 L 26.375 54.75 C 26.89061 56.685152 27.672316 58.526947 28.65625 60.21875 L 25.90625 63 C 25.127902 63.77835 25.078406 64.984729 25.84375 65.75 L 31.25 71.15625 C 32.015262 71.92152 33.221652 71.872097 34 71.09375 L 36.78125 68.34375 C 38.473058 69.327689 40.314853 70.109402 42.25 70.625 L 42.25 74.5 C 42.25 75.600754 43.105238 76.5 44.1875 76.5 L 51.8125 76.5 C 52.894752 76.5 53.75 75.600754 53.75 74.5 L 53.75 70.625 C 55.685147 70.109402 57.526941 69.327689 59.21875 68.34375 L 62 71.09375 C 62.778348 71.8721 63.984727 71.921522 64.75 71.15625 L 70.15625 65.75 C 70.921513 64.98473 70.872017 63.77835 70.09375 63 L 67.34375 60.21875 C 68.327683 58.526947 69.109401 56.685152 69.625 54.75 L 73.5 54.75 C 74.600744 54.75 75.5 53.894757 75.5 52.8125 L 75.5 45.1875 C 75.5 44.105245 74.600744 43.25 73.5 43.25 L 69.625 43.25 C 69.109405 41.314849 68.327683 39.473053 67.34375 37.78125 L 70.09375 35 C 70.872098 34.221649 70.921605 33.01527 70.15625 32.25 L 64.75 26.84375 C 63.984727 26.07848 62.778348 26.127901 62 26.90625 L 59.21875 29.65625 C 57.526941 28.672312 55.685147 27.890597 53.75 27.375 L 53.75 23.5 C 53.75 22.399245 52.894752 21.5 51.8125 21.5 L 44.1875 21.5 z M 48 35 C 55.731986 35 62 41.268014 62 49 C 62 56.731986 55.731986 63 48 63 C 40.268014 63 34 56.731986 34 49 C 34 41.268014 40.268014 35 48 35 z "
       style="opacity:0.2;fill:#000000;fill-opacity:1;fill-rule:nonzero;stroke:none;stroke-width:1;marker:none;visibility:visible;display:block;overflow:visible;enable-background:accumulate"
       id="path4359"
       d="m 44.1875,20.46875 c -1.649639,0 -2.96875,1.39995 -2.96875,3.03125 l 0,3.21875 c -1.461857,0.450067 -2.865234,1.039291 -4.1875,1.75 l -2.3125,-2.28125 c -0.52527,-0.525266 -1.250126,-0.930616 -2.0625,-0.9375 -0.759326,-0.0065 -1.530481,0.280476 -2.125,0.875 L 25.125,31.53125 c -1.161458,1.16147 -1.074579,3.050296 0.0625,4.1875 l 2.28125,2.3125 c -0.710706,1.322265 -1.299929,2.725645 -1.75,4.1875 l -3.21875,0 c -1.631303,0 -3.03125,1.319113 -3.03125,2.96875 l 0,7.625 c 0,1.649637 1.399947,2.96875 3.03125,2.96875 l 3.21875,0 c 0.450071,1.461856 1.039294,2.865236 1.75,4.1875 l -2.28125,2.3125 c -1.137183,1.137186 -1.224059,3.026052 -0.0625,4.1875 l 5.40625,5.40625 c 1.161443,1.161455 3.050289,1.074709 4.1875,-0.0625 l 2.3125,-2.28125 c 1.322267,0.71071 2.725643,1.299933 4.1875,1.75 l 0,3.21875 c 0,1.631299 1.319111,3.03125 2.96875,3.03125 l 7.625,0 c 1.649634,0 2.96875,-1.399944 2.96875,-3.03125 l 0,-3.21875 c 1.461857,-0.450067 2.865233,-1.03929 4.1875,-1.75 l 2.3125,2.28125 c 1.137207,1.13721 3.026053,1.223945 4.1875,0.0625 L 70.875,66.46875 c 1.16146,-1.16147 1.074582,-3.050297 -0.0625,-4.1875 l -2.28125,-2.3125 c 0.710707,-1.322263 1.299931,-2.72564 1.75,-4.1875 l 3.21875,0 c 1.631297,0 3.03125,-1.319107 3.03125,-2.96875 l 0,-7.625 c 0,-1.649642 -1.399951,-2.96875 -3.03125,-2.96875 l -3.21875,0 c -0.450068,-1.461861 -1.039293,-2.865237 -1.75,-4.1875 l 2.28125,-2.3125 c 1.137179,-1.137183 1.224077,-3.026052 0.0625,-4.1875 L 65.46875,26.125 c -1.161447,-1.161442 -3.050293,-1.074709 -4.1875,0.0625 l -2.3125,2.28125 c -1.322266,-0.710709 -2.725643,-1.299933 -4.1875,-1.75 l 0,-3.21875 c 0,-1.631306 -1.319116,-3.03125 -2.96875,-3.03125 l -7.625,0 z M 48,36.03125 c 7.178426,0 12.96875,5.790324 12.96875,12.96875 0,7.178426 -5.790324,12.96875 -12.96875,12.96875 -7.178426,0 -12.96875,-5.790324 -12.96875,-12.96875 0,-7.178426 5.790324,-12.96875 12.96875,-12.96875 z" />
    <path
       id="path4353"
       d="m 44.1875,21.5 c -1.082262,0 -1.9375,0.899245 -1.9375,2 l 0,3.875 c -1.935147,0.515597 -3.776942,1.297312 -5.46875,2.28125 L 34,26.90625 c -0.389179,-0.389176 -0.840116,-0.620732 -1.34375,-0.625 -0.503633,-0.0043 -1.023619,0.179866 -1.40625,0.5625 L 25.84375,32.25 c -0.765262,0.76527 -0.715766,1.971648 0.0625,2.75 l 2.75,2.78125 C 27.672316,39.473053 26.89061,41.314849 26.375,43.25 l -3.875,0 c -1.100753,0 -2,0.855244 -2,1.9375 l 0,7.625 c 0,1.082256 0.899247,1.9375 2,1.9375 l 3.875,0 c 0.51561,1.935152 1.297316,3.776947 2.28125,5.46875 L 25.90625,63 c -0.778348,0.77835 -0.827844,1.984729 -0.0625,2.75 L 31.25,71.15625 c 0.765262,0.76527 1.971652,0.715847 2.75,-0.0625 l 2.78125,-2.75 c 1.691808,0.983939 3.533603,1.765652 5.46875,2.28125 l 0,3.875 c 0,1.100754 0.855238,2 1.9375,2 l 7.625,0 c 1.082252,0 1.9375,-0.899246 1.9375,-2 l 0,-3.875 c 1.935147,-0.515598 3.776941,-1.297311 5.46875,-2.28125 L 62,71.09375 c 0.778348,0.77835 1.984727,0.827772 2.75,0.0625 L 70.15625,65.75 c 0.765263,-0.76527 0.715767,-1.97165 -0.0625,-2.75 l -2.75,-2.78125 C 68.327683,58.526947 69.109401,56.685152 69.625,54.75 l 3.875,0 c 1.100744,0 2,-0.855243 2,-1.9375 l 0,-7.625 c 0,-1.082255 -0.899256,-1.9375 -2,-1.9375 l -3.875,0 C 69.109405,41.314849 68.327683,39.473053 67.34375,37.78125 L 70.09375,35 c 0.778348,-0.778351 0.827855,-1.98473 0.0625,-2.75 L 64.75,26.84375 C 63.984727,26.07848 62.778348,26.127901 62,26.90625 l -2.78125,2.75 C 57.526941,28.672312 55.685147,27.890597 53.75,27.375 l 0,-3.875 c 0,-1.100755 -0.855248,-2 -1.9375,-2 l -7.625,0 z M 48,35 c 7.731986,0 14,6.268014 14,14 0,7.731986 -6.268014,14 -14,14 -7.731986,0 -14,-6.268014 -14,-14 0,-7.731986 6.268014,-14 14,-14 z"
       style="opacity:0.3;fill:#000000;fill-opacity:1;fill-rule:nonzero;stroke:none;stroke-width:1;marker:none;visibility:visible;display:block;overflow:visible;enable-background:accumulate"
       inkscape:connector-curvature="0" />
    <path
       inkscape:connector-curvature="0"
       style="fill:url(#linearGradient3141);fill-opacity:1;fill-rule:nonzero;stroke:none;stroke-width:1;marker:none;visibility:visible;display:block;overflow:visible;enable-background:accumulate"
       d="m 44.1875,20.5 c -1.082262,0 -1.9375,0.899245 -1.9375,2 l 0,3.875 c -1.935147,0.515597 -3.776942,1.297312 -5.46875,2.28125 L 34,25.90625 c -0.389179,-0.389176 -0.840116,-0.620732 -1.34375,-0.625 -0.503633,-0.0043 -1.023619,0.179866 -1.40625,0.5625 L 25.84375,31.25 c -0.765262,0.76527 -0.715766,1.971648 0.0625,2.75 l 2.75,2.78125 C 27.672316,38.473053 26.89061,40.314849 26.375,42.25 l -3.875,0 c -1.100753,0 -2,0.855244 -2,1.9375 l 0,7.625 c 0,1.082256 0.899247,1.9375 2,1.9375 l 3.875,0 c 0.51561,1.935152 1.297316,3.776947 2.28125,5.46875 L 25.90625,62 c -0.778348,0.77835 -0.827844,1.984729 -0.0625,2.75 L 31.25,70.15625 c 0.765262,0.76527 1.971652,0.715847 2.75,-0.0625 l 2.78125,-2.75 c 1.691808,0.983939 3.533603,1.765652 5.46875,2.28125 l 0,3.875 c 0,1.100754 0.855238,2 1.9375,2 l 7.625,0 c 1.082252,0 1.9375,-0.899246 1.9375,-2 l 0,-3.875 c 1.935147,-0.515598 3.776941,-1.297311 5.46875,-2.28125 L 62,70.09375 c 0.778348,0.77835 1.984727,0.827772 2.75,0.0625 L 70.15625,64.75 c 0.765263,-0.76527 0.715767,-1.97165 -0.0625,-2.75 l -2.75,-2.78125 C 68.327683,57.526947 69.109401,55.685152 69.625,53.75 l 3.875,0 c 1.100744,0 2,-0.855243 2,-1.9375 l 0,-7.625 c 0,-1.082255 -0.899256,-1.9375 -2,-1.9375 l -3.875,0 C 69.109405,40.314849 68.327683,38.473053 67.34375,36.78125 L 70.09375,34 c 0.778348,-0.778351 0.827855,-1.98473 0.0625,-2.75 L 64.75,25.84375 C 63.984727,25.07848 62.778348,25.127901 62,25.90625 l -2.78125,2.75 C 57.526941,27.672312 55.685147,26.890597 53.75,26.375 l 0,-3.875 c 0,-1.100755 -0.855248,-2 -1.9375,-2 l -7.625,0 z M 48,34 c 7.731986,0 14,6.268014 14,14 0,7.731986 -6.268014,14 -14,14 -7.731986,0 -14,-6.268014 -14,-14 0,-7.731986 6.268014,-14 14,-14 z"
       id="rect3267" />
    <g
       id="g4176"
       clip-path="url(#clipPath4403)"
       transform="matrix(0.8660254,0.5,-0.5,0.8660254,85.39875,-112.71247)">
      <g
         style="opacity:0.9"
         transform="matrix(0.1413721,0.99271966,-1.1651755,0.12044784,96.937266,104.80532)"
         inkscape:transform-center-y="30.567075"
         inkscape:transform-center-x="0.33129085"
         id="g4011">
        <path
           sodipodi:end="0.46793338"
           sodipodi:start="0"
           d="m 108.8959,48 c 0,9.541976 -2.24232,18.950422 -6.54616,27.466658 L 48,48 z"
           sodipodi:ry="60.895905"
           sodipodi:rx="60.895905"
           sodipodi:cy="48"
           sodipodi:cx="48"
           id="path4009"
           style="opacity:0.05;color:#000000;fill:url(#linearGradient4213);fill-opacity:1;fill-rule:nonzero;stroke:none;stroke-width:2;marker:none;visibility:visible;display:inline;overflow:visible;enable-background:accumulate"
           sodipodi:type="arc"
           inkscape:transform-center-x="-30.208857"
           inkscape:transform-center-y="3.2334227"
           transform="matrix(0.99411049,-0.1083712,0.1083712,0.99411049,-5.1582185,5.4918915)" />
        <path
           transform="matrix(0.99786084,-0.06537382,0.06537382,0.99786084,-3.0940115,3.2415713)"
           inkscape:transform-center-y="5.7561286"
           inkscape:transform-center-x="-30.389206"
           sodipodi:type="arc"
           style="opacity:0.07000002;color:#000000;fill:url(#linearGradient4215);fill-opacity:1;fill-rule:nonzero;stroke:none;stroke-width:2;marker:none;visibility:visible;display:inline;overflow:visible;enable-background:accumulate"
           id="path4007"
           sodipodi:cx="48"
           sodipodi:cy="48"
           sodipodi:rx="60.895905"
           sodipodi:ry="60.895905"
           d="m 108.8959,48 c 0,7.838782 -1.51343,15.60384 -4.45721,22.86887 L 48,48 z"
           sodipodi:start="0"
           sodipodi:end="0.38497975" />
        <path
           sodipodi:end="0.32200852"
           sodipodi:start="0"
           d="m 108.8959,48 c 0,6.55049 -1.05689,13.058072 -3.12994,19.271878 L 48,48 z"
           sodipodi:ry="60.895905"
           sodipodi:rx="60.895905"
           sodipodi:cy="48"
           sodipodi:cx="48"
           id="path4005"
           style="opacity:0.1;color:#000000;fill:url(#linearGradient4217);fill-opacity:1;fill-rule:nonzero;stroke:none;stroke-width:2;marker:none;visibility:visible;display:inline;overflow:visible;enable-background:accumulate"
           sodipodi:type="arc"
           inkscape:transform-center-x="-30.447953"
           inkscape:transform-center-y="7.6655702"
           transform="matrix(0.99945136,-0.0331207,0.0331207,0.99945136,-1.5634586,1.6161281)" />
        <path
           sodipodi:type="arc"
           style="opacity:0.05;color:#000000;fill:url(#linearGradient4219);fill-opacity:1;fill-rule:nonzero;stroke:none;stroke-width:2;marker:none;visibility:visible;display:inline;overflow:visible;enable-background:accumulate"
           id="path4003"
           sodipodi:cx="48"
           sodipodi:cy="48"
           sodipodi:rx="60.895905"
           sodipodi:ry="60.895905"
           d="m 108.8959,48 c 0,5.321771 -0.6976,10.620584 -2.07497,15.76102 L 48,48 z"
           sodipodi:start="0"
           sodipodi:end="0.26179939" />
      </g>
      <g
         transform="matrix(1.062807,-0.13087531,-0.74010065,3.227468,32.525111,9.33226)"
         inkscape:transform-center-y="16.240454"
         inkscape:transform-center-x="-34.606346"
         id="g4027"
         style="opacity:0.9;fill:#ffffff">
        <path
           sodipodi:end="0.46793338"
           sodipodi:start="0"
           d="m 108.8959,48 c 0,9.541976 -2.24232,18.950422 -6.54616,27.466658 L 48,48 z"
           sodipodi:ry="60.895905"
           sodipodi:rx="60.895905"
           sodipodi:cy="48"
           sodipodi:cx="48"
           id="path4029"
           style="opacity:0.2;color:#000000;fill:url(#linearGradient4221);fill-opacity:1;fill-rule:nonzero;stroke:none;stroke-width:2;marker:none;visibility:visible;display:inline;overflow:visible;enable-background:accumulate"
           sodipodi:type="arc"
           inkscape:transform-center-x="-30.208857"
           inkscape:transform-center-y="3.2334227"
           transform="matrix(0.99411049,-0.1083712,0.1083712,0.99411049,-5.1582185,5.4918915)" />
        <path
           transform="matrix(0.99786084,-0.06537382,0.06537382,0.99786084,-3.0940115,3.2415713)"
           inkscape:transform-center-y="5.7561286"
           inkscape:transform-center-x="-30.389206"
           sodipodi:type="arc"
           style="opacity:0.4;color:#000000;fill:url(#linearGradient4223);fill-opacity:1;fill-rule:nonzero;stroke:none;stroke-width:2;marker:none;visibility:visible;display:inline;overflow:visible;enable-background:accumulate"
           id="path4031"
           sodipodi:cx="48"
           sodipodi:cy="48"
           sodipodi:rx="60.895905"
           sodipodi:ry="60.895905"
           d="m 108.8959,48 c 0,7.838782 -1.51343,15.60384 -4.45721,22.86887 L 48,48 z"
           sodipodi:start="0"
           sodipodi:end="0.38497975" />
        <path
           sodipodi:end="0.32200852"
           sodipodi:start="0"
           d="m 108.8959,48 c 0,6.55049 -1.05689,13.058072 -3.12994,19.271878 L 48,48 z"
           sodipodi:ry="60.895905"
           sodipodi:rx="60.895905"
           sodipodi:cy="48"
           sodipodi:cx="48"
           id="path4033"
           style="opacity:0.6;color:#000000;fill:url(#linearGradient4225);fill-opacity:1;fill-rule:nonzero;stroke:none;stroke-width:2;marker:none;visibility:visible;display:inline;overflow:visible;enable-background:accumulate"
           sodipodi:type="arc"
           inkscape:transform-center-x="-30.447953"
           inkscape:transform-center-y="7.6655702"
           transform="matrix(0.99945136,-0.0331207,0.0331207,0.99945136,-1.5634586,1.6161281)" />
        <path
           sodipodi:type="arc"
           style="opacity:0.8;color:#000000;fill:url(#linearGradient4227);fill-opacity:1;fill-rule:nonzero;stroke:none;stroke-width:2;marker:none;visibility:visible;display:inline;overflow:visible;enable-background:accumulate"
           id="path4035"
           sodipodi:cx="48"
           sodipodi:cy="48"
           sodipodi:rx="60.895905"
           sodipodi:ry="60.895905"
           d="m 108.8959,48 c 0,5.321771 -0.6976,10.620584 -2.07497,15.76102 L 48,48 z"
           sodipodi:start="0"
           sodipodi:end="0.26179939" />
      </g>
      <g
         id="g4079"
         inkscape:transform-center-x="26.014377"
         inkscape:transform-center-y="25.855951"
         transform="matrix(-0.61678932,0.78712829,-0.78712829,-0.61678932,115.00148,150.01193)"
         style="opacity:0.5">
        <path
           transform="matrix(0.99411049,-0.1083712,0.1083712,0.99411049,-5.1582185,5.4918915)"
           inkscape:transform-center-y="3.2334227"
           inkscape:transform-center-x="-30.208857"
           sodipodi:type="arc"
           style="opacity:0.05;color:#000000;fill:url(#linearGradient4229);fill-opacity:1;fill-rule:nonzero;stroke:none;stroke-width:2;marker:none;visibility:visible;display:inline;overflow:visible;enable-background:accumulate"
           id="path4081"
           sodipodi:cx="48"
           sodipodi:cy="48"
           sodipodi:rx="60.895905"
           sodipodi:ry="60.895905"
           d="m 108.8959,48 c 0,9.541976 -2.24232,18.950422 -6.54616,27.466658 L 48,48 z"
           sodipodi:start="0"
           sodipodi:end="0.46793338" />
        <path
           sodipodi:end="0.38497975"
           sodipodi:start="0"
           d="m 108.8959,48 c 0,7.838782 -1.51343,15.60384 -4.45721,22.86887 L 48,48 z"
           sodipodi:ry="60.895905"
           sodipodi:rx="60.895905"
           sodipodi:cy="48"
           sodipodi:cx="48"
           id="path4083"
           style="opacity:0.07000002;color:#000000;fill:url(#linearGradient4231);fill-opacity:1;fill-rule:nonzero;stroke:none;stroke-width:2;marker:none;visibility:visible;display:inline;overflow:visible;enable-background:accumulate"
           sodipodi:type="arc"
           inkscape:transform-center-x="-30.389206"
           inkscape:transform-center-y="5.7561286"
           transform="matrix(0.99786084,-0.06537382,0.06537382,0.99786084,-3.0940115,3.2415713)" />
        <path
           transform="matrix(0.99945136,-0.0331207,0.0331207,0.99945136,-1.5634586,1.6161281)"
           inkscape:transform-center-y="7.6655702"
           inkscape:transform-center-x="-30.447953"
           sodipodi:type="arc"
           style="opacity:0.1;color:#000000;fill:url(#linearGradient4233);fill-opacity:1;fill-rule:nonzero;stroke:none;stroke-width:2;marker:none;visibility:visible;display:inline;overflow:visible;enable-background:accumulate"
           id="path4085"
           sodipodi:cx="48"
           sodipodi:cy="48"
           sodipodi:rx="60.895905"
           sodipodi:ry="60.895905"
           d="m 108.8959,48 c 0,6.55049 -1.05689,13.058072 -3.12994,19.271878 L 48,48 z"
           sodipodi:start="0"
           sodipodi:end="0.32200852" />
        <path
           sodipodi:end="0.26179939"
           sodipodi:start="0"
           d="m 108.8959,48 c 0,5.321771 -0.6976,10.620584 -2.07497,15.76102 L 48,48 z"
           sodipodi:ry="60.895905"
           sodipodi:rx="60.895905"
           sodipodi:cy="48"
           sodipodi:cx="48"
           id="path4087"
           style="opacity:0.1;color:#000000;fill:url(#linearGradient4235);fill-opacity:1;fill-rule:nonzero;stroke:none;stroke-width:2;marker:none;visibility:visible;display:inline;overflow:visible;enable-background:accumulate"
           sodipodi:type="arc" />
      </g>
      <g
         id="g4097"
         inkscape:transform-center-x="-16.093513"
         inkscape:transform-center-y="-33.641891"
         transform="matrix(-0.06817198,-1.0460056,2.710673,0.60162586,-79.095447,179.08013)"
         style="opacity:0.8">
        <path
           transform="matrix(0.99411049,-0.1083712,0.1083712,0.99411049,-5.1582185,5.4918915)"
           inkscape:transform-center-y="3.2334227"
           inkscape:transform-center-x="-30.208857"
           sodipodi:type="arc"
           style="opacity:0.05;color:#000000;fill:url(#linearGradient4237);fill-opacity:1;fill-rule:nonzero;stroke:none;stroke-width:2;marker:none;visibility:visible;display:inline;overflow:visible;enable-background:accumulate"
           id="path4099"
           sodipodi:cx="48"
           sodipodi:cy="48"
           sodipodi:rx="60.895905"
           sodipodi:ry="60.895905"
           d="m 108.8959,48 c 0,9.541976 -2.24232,18.950422 -6.54616,27.466658 L 48,48 z"
           sodipodi:start="0"
           sodipodi:end="0.46793338" />
        <path
           sodipodi:end="0.38497975"
           sodipodi:start="0"
           d="m 108.8959,48 c 0,7.838782 -1.51343,15.60384 -4.45721,22.86887 L 48,48 z"
           sodipodi:ry="60.895905"
           sodipodi:rx="60.895905"
           sodipodi:cy="48"
           sodipodi:cx="48"
           id="path4101"
           style="opacity:0.07000002;color:#000000;fill:url(#linearGradient4239);fill-opacity:1;fill-rule:nonzero;stroke:none;stroke-width:2;marker:none;visibility:visible;display:inline;overflow:visible;enable-background:accumulate"
           sodipodi:type="arc"
           inkscape:transform-center-x="-30.389206"
           inkscape:transform-center-y="5.7561286"
           transform="matrix(0.99786084,-0.06537382,0.06537382,0.99786084,-3.0940115,3.2415713)" />
        <path
           transform="matrix(0.99945136,-0.0331207,0.0331207,0.99945136,-1.5634586,1.6161281)"
           inkscape:transform-center-y="7.6655702"
           inkscape:transform-center-x="-30.447953"
           sodipodi:type="arc"
           style="opacity:0.1;color:#000000;fill:url(#linearGradient4241);fill-opacity:1;fill-rule:nonzero;stroke:none;stroke-width:2;marker:none;visibility:visible;display:inline;overflow:visible;enable-background:accumulate"
           id="path4103"
           sodipodi:cx="48"
           sodipodi:cy="48"
           sodipodi:rx="60.895905"
           sodipodi:ry="60.895905"
           d="m 108.8959,48 c 0,6.55049 -1.05689,13.058072 -3.12994,19.271878 L 48,48 z"
           sodipodi:start="0"
           sodipodi:end="0.32200852" />
        <path
           sodipodi:end="0.26179939"
           sodipodi:start="0"
           d="m 108.8959,48 c 0,5.321771 -0.6976,10.620584 -2.07497,15.76102 L 48,48 z"
           sodipodi:ry="60.895905"
           sodipodi:rx="60.895905"
           sodipodi:cy="48"
           sodipodi:cx="48"
           id="path4105"
           style="opacity:0.1;color:#000000;fill:url(#linearGradient4243);fill-opacity:1;fill-rule:nonzero;stroke:none;stroke-width:2;marker:none;visibility:visible;display:inline;overflow:visible;enable-background:accumulate"
           sodipodi:type="arc" />
      </g>
      <g
         style="opacity:0.9;fill:#ffffff"
         id="g4147"
         inkscape:transform-center-x="34.606347"
         inkscape:transform-center-y="-16.240455"
         transform="matrix(-1.062807,0.1308753,0.74010064,-3.227468,62.996694,306.66774)">
        <path
           transform="matrix(0.99411049,-0.1083712,0.1083712,0.99411049,-5.1582185,5.4918915)"
           inkscape:transform-center-y="3.2334227"
           inkscape:transform-center-x="-30.208857"
           sodipodi:type="arc"
           style="opacity:0.2;color:#000000;fill:url(#linearGradient4245);fill-opacity:1;fill-rule:nonzero;stroke:none;stroke-width:2;marker:none;visibility:visible;display:inline;overflow:visible;enable-background:accumulate"
           id="path4149"
           sodipodi:cx="48"
           sodipodi:cy="48"
           sodipodi:rx="60.895905"
           sodipodi:ry="60.895905"
           d="m 108.8959,48 c 0,9.541976 -2.24232,18.950422 -6.54616,27.466658 L 48,48 z"
           sodipodi:start="0"
           sodipodi:end="0.46793338" />
        <path
           sodipodi:end="0.38497975"
           sodipodi:start="0"
           d="m 108.8959,48 c 0,7.838782 -1.51343,15.60384 -4.45721,22.86887 L 48,48 z"
           sodipodi:ry="60.895905"
           sodipodi:rx="60.895905"
           sodipodi:cy="48"
           sodipodi:cx="48"
           id="path4151"
           style="opacity:0.4;color:#000000;fill:url(#linearGradient4247);fill-opacity:1;fill-rule:nonzero;stroke:none;stroke-width:2;marker:none;visibility:visible;display:inline;overflow:visible;enable-background:accumulate"
           sodipodi:type="arc"
           inkscape:transform-center-x="-30.389206"
           inkscape:transform-center-y="5.7561286"
           transform="matrix(0.99786084,-0.06537382,0.06537382,0.99786084,-3.0940115,3.2415713)" />
        <path
           transform="matrix(0.99945136,-0.0331207,0.0331207,0.99945136,-1.5634586,1.6161281)"
           inkscape:transform-center-y="7.6655702"
           inkscape:transform-center-x="-30.447953"
           sodipodi:type="arc"
           style="opacity:0.6;color:#000000;fill:url(#linearGradient4249);fill-opacity:1;fill-rule:nonzero;stroke:none;stroke-width:2;marker:none;visibility:visible;display:inline;overflow:visible;enable-background:accumulate"
           id="path4153"
           sodipodi:cx="48"
           sodipodi:cy="48"
           sodipodi:rx="60.895905"
           sodipodi:ry="60.895905"
           d="m 108.8959,48 c 0,6.55049 -1.05689,13.058072 -3.12994,19.271878 L 48,48 z"
           sodipodi:start="0"
           sodipodi:end="0.32200852" />
        <path
           sodipodi:end="0.26179939"
           sodipodi:start="0"
           d="m 108.8959,48 c 0,5.321771 -0.6976,10.620584 -2.07497,15.76102 L 48,48 z"
           sodipodi:ry="60.895905"
           sodipodi:rx="60.895905"
           sodipodi:cy="48"
           sodipodi:cx="48"
           id="path4155"
           style="opacity:0.8;color:#000000;fill:url(#linearGradient4251);fill-opacity:1;fill-rule:nonzero;stroke:none;stroke-width:2;marker:none;visibility:visible;display:inline;overflow:visible;enable-background:accumulate"
           sodipodi:type="arc" />
      </g>
    </g>
    <path
       inkscape:connector-curvature="0"
       style="opacity:0.7;fill:#ffffff;fill-opacity:1;fill-rule:nonzero;stroke:none;stroke-width:1;marker:none;visibility:visible;display:block;overflow:visible;enable-background:accumulate"
       d="m 44.1875,20.5 c -1.082262,0 -1.9375,0.899245 -1.9375,2 l 0,1 c 0,-1.100755 0.855238,-2 1.9375,-2 l 7.625,0 c 1.082252,0 1.9375,0.899245 1.9375,2 l 0,-1 c 0,-1.100755 -0.855248,-2 -1.9375,-2 l -7.625,0 z m -11.53125,4.78125 c -0.503633,-0.0043 -1.023619,0.179866 -1.40625,0.5625 L 25.84375,31.25 c -0.496443,0.496448 -0.634599,1.182061 -0.46875,1.8125 0.0841,-0.291632 0.234756,-0.578504 0.46875,-0.8125 L 31.25,26.84375 c 0.382631,-0.382634 0.902617,-0.5668 1.40625,-0.5625 0.503634,0.0043 0.954571,0.235824 1.34375,0.625 l 2.78125,2.75 C 38.473058,28.672312 40.314853,27.890597 42.25,27.375 l 0,-1 c -1.935147,0.515597 -3.776942,1.297312 -5.46875,2.28125 L 34,25.90625 c -0.389179,-0.389176 -0.840116,-0.620732 -1.34375,-0.625 z m 30.71875,0 c -0.494547,0.01399 -0.985826,0.235826 -1.375,0.625 l -2.78125,2.75 C 57.526941,27.672312 55.685147,26.890597 53.75,26.375 l 0,1 c 1.935147,0.515597 3.776941,1.297312 5.46875,2.28125 L 62,26.90625 c 0.778348,-0.778349 1.984727,-0.82777 2.75,-0.0625 L 70.15625,32.25 c 0.234022,0.233996 0.38464,0.520868 0.46875,0.8125 0.165867,-0.630439 0.02775,-1.316052 -0.46875,-1.8125 L 64.75,25.84375 c -0.382637,-0.382635 -0.880453,-0.57649 -1.375,-0.5625 z M 28.3125,37.4375 c -0.812756,1.508863 -1.487562,3.123824 -1.9375,4.8125 l -3.875,0 c -1.100753,0 -2,0.855244 -2,1.9375 l 0,1 c 0,-1.082256 0.899247,-1.9375 2,-1.9375 l 3.875,0 c 0.51561,-1.935151 1.297316,-3.776947 2.28125,-5.46875 L 28.3125,37.4375 z m 39.375,0 -0.34375,0.34375 c 0.983933,1.691803 1.765655,3.533599 2.28125,5.46875 l 3.875,0 c 1.100744,0 2,0.855245 2,1.9375 l 0,-1 c 0,-1.082255 -0.899256,-1.9375 -2,-1.9375 l -3.875,0 C 69.175075,40.561324 68.500258,38.946363 67.6875,37.4375 z M 34.03125,48.5 C 34.02535,48.66679 34,48.831775 34,49 c 0,7.731986 6.268014,14 14,14 7.731986,0 14,-6.268014 14,-14 0,-0.168225 -0.02537,-0.33321 -0.03125,-0.5 C 61.704161,55.999218 55.563761,62 48,62 40.436239,62 34.295839,55.999218 34.03125,48.5 z M 28.3125,59.5625 25.90625,62 C 25.365897,62.540355 25.184033,63.275367 25.375,63.9375 25.46481,63.596123 25.632834,63.273417 25.90625,63 l 2.75,-2.78125 C 28.530929,60.00327 28.431128,59.78273 28.3125,59.5625 z m 39.375,0 c -0.118628,0.22023 -0.218429,0.44077 -0.34375,0.65625 L 70.09375,63 c 0.273388,0.273417 0.441444,0.596123 0.53125,0.9375 C 70.815945,63.275367 70.634,62.540355 70.09375,62 L 67.6875,59.5625 z"
       id="path4382" />
    <path
       inkscape:connector-curvature="0"
       style="opacity:0.2;fill:#000000;fill-opacity:1;fill-rule:nonzero;stroke:none;stroke-width:1;marker:none;visibility:visible;display:block;overflow:visible;enable-background:accumulate"
       d="M 25.375,32.0625 C 25.184055,32.724633 25.366,33.459644 25.90625,34 l 2.40625,2.4375 c 0.118628,-0.22023 0.218429,-0.44077 0.34375,-0.65625 L 25.90625,33 C 25.632863,32.726583 25.464806,32.403877 25.375,32.0625 z m 45.25,0 C 70.53518,32.403877 70.367166,32.726583 70.09375,33 l -2.75,2.78125 c 0.125321,0.21548 0.225122,0.43602 0.34375,0.65625 L 70.09375,34 c 0.540353,-0.540355 0.722218,-1.275367 0.53125,-1.9375 z M 48,33 c -7.731986,0 -14,6.268014 -14,14 0,0.168225 0.02537,0.33321 0.03125,0.5 C 34.295839,40.000782 40.436239,34 48,34 55.563761,34 61.704161,40.000782 61.96875,47.5 61.97465,47.33321 62,47.168225 62,47 62,39.268014 55.731986,33 48,33 z m -27.5,17.8125 0,1 c 0,1.082256 0.899247,1.9375 2,1.9375 l 3.875,0 c 0.449938,1.688677 1.124744,3.303637 1.9375,4.8125 l 0.34375,-0.34375 C 27.672316,56.526947 26.89061,54.685152 26.375,52.75 l -3.875,0 c -1.100753,0 -2,-0.855244 -2,-1.9375 z m 55,0 c 0,1.082257 -0.899256,1.9375 -2,1.9375 l -3.875,0 c -0.515599,1.935152 -1.297317,3.776947 -2.28125,5.46875 l 0.34375,0.34375 c 0.812757,-1.508863 1.487571,-3.123823 1.9375,-4.8125 l 3.875,0 c 1.100744,0 2,-0.855243 2,-1.9375 l 0,-1 z m -50.125,12.125 c -0.165865,0.630439 -0.02775,1.316051 0.46875,1.8125 L 31.25,70.15625 c 0.765262,0.76527 1.971652,0.715847 2.75,-0.0625 l 2.78125,-2.75 c 1.691808,0.983939 3.533603,1.765652 5.46875,2.28125 l 0,-1 C 40.314853,68.109402 38.473058,67.327689 36.78125,66.34375 L 34,69.09375 c -0.778348,0.778347 -1.984738,0.82777 -2.75,0.0625 L 25.84375,63.75 C 25.609731,63.516004 25.45911,63.229132 25.375,62.9375 z m 45.25,0 c -0.0841,0.291632 -0.234756,0.578504 -0.46875,0.8125 L 64.75,69.15625 C 63.984727,69.921522 62.778348,69.8721 62,69.09375 l -2.78125,-2.75 C 57.526941,67.327689 55.685147,68.109402 53.75,68.625 l 0,1 c 1.935147,-0.515598 3.776941,-1.297311 5.46875,-2.28125 L 62,70.09375 c 0.778348,0.77835 1.984727,0.827772 2.75,0.0625 L 70.15625,64.75 c 0.496443,-0.496448 0.634599,-1.182061 0.46875,-1.8125 z M 42.25,72.5 l 0,1 c 0,1.100754 0.855238,2 1.9375,2 l 7.625,0 c 1.082252,0 1.9375,-0.899246 1.9375,-2 l 0,-1 c 0,1.100754 -0.855248,2 -1.9375,2 l -7.625,0 c -1.082262,0 -1.9375,-0.899246 -1.9375,-2 z"
       id="path4391" />
  </g>
</svg>
